<mxfile host="65bd71144e">
    <diagram id="yHFHmsuOctcC47Hb3Qxo" name="Page-1">
        <mxGraphModel dx="2265" dy="611" grid="1" gridSize="10" guides="1" tooltips="1" connect="1" arrows="1" fold="1" page="1" pageScale="1" pageWidth="827" pageHeight="1169" math="0" shadow="0">
            <root>
                <mxCell id="0"/>
                <mxCell id="1" parent="0"/>
                <mxCell id="7" value="" style="shape=image;verticalLabelPosition=bottom;labelBackgroundColor=default;verticalAlign=top;aspect=fixed;imageAspect=0;image=data:image/svg+xml,PHN2ZyB4bWxucz0iaHR0cDovL3d3dy53My5vcmcvMjAwMC9zdmciIGZpbGw9Im5vbmUiIHZpZXdCb3g9IjAgMCA0MCA0MCIgaGVpZ2h0PSI0MDAiIHdpZHRoPSI0MDAiPgogIDxnPgogICAgPHRpdGxlLz4KICAgIDxwYXRoIGZpbGw9IiM5QjlDOUMiIGQ9Ik0uNTU2IDYuMDg5YzAtLjA2NS4wMTUtLjEyOS4wNDYtLjE4N2EuMzU1LjM1NSAwIDAgMSAuMTM2LS4xMzNsMi43NDQtMS41MzMgNC4zOTQtMi41MzhhLjM5LjM5IDAgMCAxIC41MTguMTg3bDEuNTEzIDIuNTYyYS40LjQgMCAwIDEgLjAyNi4yNjkuMzQ5LjM0OSAwIDAgMS0uMTY0LjIxTDQuNTE2IDcuOWEuMzcxLjM3MSAwIDAgMC0uMTgzLjMydjIzLjYwNGEuMzkuMzkgMCAwIDAgLjE4My4zMmw1LjI2IDIuOTc4YS4zNjMuMzYzIDAgMCAxIC4xMzcuNDhMOC40IDM4LjE2NWEuMzkzLjM5MyAwIDAgMS0uMjM2LjE3NS4zOC4zOCAwIDAgMS0uMjktLjA0TDMuMzkgMzUuNzA3bC0yLjY1LTEuNDhhLjM3Ny4zNzcgMCAwIDEtLjEzNi0uMTM2LjMzOS4zMzkgMCAwIDEtLjA0Ni0uMTg3TC41NTYgNi4wOVptMzguODg4LS4wNDVhLjM1NS4zNTUgMCAwIDAtLjE4Mi0uMzJsLTIuNzQ0LTEuNTMzLTQuMzk0LTIuNDkzYS4zOS4zOSAwIDAgMC0uNTE4LjE4N2wtMS41MTMgMi41NjJhLjM5OS4zOTkgMCAwIDAtLjAyNi4yNjkuMzYzLjM2MyAwIDAgMCAuMTY0LjIxTDM1LjQ4NCA3LjlhLjM1LjM1IDAgMCAxIC4xMzQuMTM2LjM1My4zNTMgMCAwIDEgLjA0OS4xODR2MjMuNjA0YS4zOS4zOSAwIDAgMS0uMTgzLjMybC01LjI2IDIuOTc4YS4zNTIuMzUyIDAgMCAwLS4xNjIuMjExLjM2NS4zNjUgMCAwIDAgLjAyNS4yN2wxLjUxMyAyLjU2MWEuMzg2LjM4NiAwIDAgMCAuNTI3LjEzNmw0LjQ4Mi0yLjU5MyAyLjY1My0xLjQ4N2EuMzU5LjM1OSAwIDAgMCAuMTMxLS4xMzMuMzUuMzUgMCAwIDAgLjA1LS4xODNsLjAwMS0yNy44NloiLz4KICAgIDxwYXRoIGZpbGw9IiNCMUIzQjMiIGQ9Ik0yLjYxNiA3LjA3My41NTYgNS45MDdjMC0uMDM2LjAxNy0uMDcuMDQyLS4wOTZhLjEzOC4xMzggMCAwIDEgLjA5NS0uMDRsMi43MjMtMS41MzNMNy44MjkgMS43YS4zMzcuMzM3IDAgMCAxIC4zMzMtLjAxM2MuMDguMDQuMTQyLjExLjE3MS4xOTVsMS41MTQgMi41NjJhLjMxMS4zMTEgMCAwIDEgLjAzNi4zMDQuMzQyLjM0MiAwIDAgMS0uMTc0LjE3Nkw0LjQ0NyA3LjkwMmwtLjEzOC4xMzYtMS42OTMtLjk2NVptNy4wODggMjgtNS4yNi0yLjk3NWEuNTE0LjUxNCAwIDAgMS0uMTYtLjIxNkwuNTggMzQuMThoLjExNmwyLjYyOCAxLjQ4OSA0LjU3OCAyLjUzOGEuMzUuMzUgMCAwIDAgLjQ3Ni0uMDkxbC4wMjktLjA0NyAxLjUxMy0yLjU2YS4zMDcuMzA3IDAgMCAwIDAtLjI0Ny4zMy4zMyAwIDAgMC0uMTcxLS4xNzVsLS4wNDItLjAxNi0uMDAzLjAwMlptMjcuNjgtMjguMDM3IDIuMDYtMS4xNzYtLjEzNy0uMTM2LTIuNzIzLTEuNTMzLTQuNDEzLTIuNDkzYS4zMzcuMzM3IDAgMCAwLS4zMzMtLjAxMy4zNTcuMzU3IDAgMCAwLS4xNzQuMTk1bC0xLjUxMyAyLjU2MmEuNTUzLjU1MyAwIDAgMC0uMDM1LjA2LjMxMi4zMTIgMCAwIDAgMCAuMjQ1LjM0LjM0IDAgMCAwIC4xNzMuMTc1TDM1LjU1IDcuOWwuMTM4LjEzNiAxLjY5MS0xaC4wMDRabS03LjE4MiAyOC40NzMgMS41MTMgMi41Ni4wMjcuMDQ3YS4zMzYuMzM2IDAgMCAwIC4yMi4xNDIuMzQuMzQgMCAwIDAgLjI1OC0uMDUxbDQuNTc1LTIuNTM4IDIuNjMtMS40ODktMy43MDUtMi4yODdhLjUxNS41MTUgMCAwIDEtLjE2LjIxNmwtNS4yNiAyLjk3M2EuMzIuMzIgMCAwIDAtLjA5My40MjVsLS4wMDUuMDAyWiIvPgogICAgPHBhdGggZmlsbD0iIzY2NEI5NiIgZD0iTTMyLjk2MiAxMy41MnY3LjAyMmEuODg4Ljg4OCAwIDAgMC0uMzI0LS4wNjRjLTEuNTc4LS4wMjMtMi4wNTMtLjM2Ny0yLjU3MS0uNzE0LS41NjMtLjM4OS0xLjIxLS44NDItMi42OC0uODQyLTEuNDkxIDAtMi4xMTguNDUzLTIuNjguODQyLS41MTguMzQ3LTEuMDE2LjY5Mi0yLjU3MS43MTQtLjY3LjAyMi0xLjE5LjU0LTEuMTkgMS4yMDl2NC4yNzdjMCAxLjYyLjc3OCAzLjA5IDEuNzcyIDQuM2wtMi42NTggMS4wNThhLjQ0My40NDMgMCAwIDEtLjIzOC4wNjVjLS4wNDIgMC0uMDg2IDAtLjEyOS0uMDIzYS4zNDMuMzQzIDAgMCAxLS4xNzMtLjMwMlY4LjkxOGMwLS4xMy4wNjQtLjIzOC4xNzMtLjI4bC4wNjUtLjAyMmguMTczbC4wODcuMDIyIDEyLjQ2NiA0LjIzNWMuMjguMDg3LjQ3Ni4zNDcuNDc2LjY1bC4wMDItLjAwM1oiLz4KICAgIDxwYXRoIGZpbGw9IiM4NjYxQzUiIGQ9Ik0xOS43NTggOC42MTEgNy4zNDIgMTAuODc4YS4zNzYuMzc2IDAgMCAwLS4zMDQuMzY5djE3LjEzN2MwIC4xNzguMTIyLjMzMS4yOTguMzY3bDEyLjQxMyAyLjYzM2EuMzc4LjM3OCAwIDAgMCAuNDU4LS4zNjZWOC45OGEuMzc1LjM3NSAwIDAgMC0uMzc0LS4zNzYuMjcuMjcgMCAwIDAtLjA3My4wMDdoLS4wMDJaIi8+CiAgICA8cGF0aCBmaWxsPSIjQTU4QUQ0IiBkPSJNMTQuMDIyIDI3Ljk2OVYxMi4wMjRsNC4zMTgtLjc1M3YxNy4zOTZsLTQuMzE4LS42OThabS01LjMwOS0xLjExNlYxMi44ODRsMy43NjMtLjYzdjE1LjM2MmwtMy43NjMtLjc2M1oiLz4KICAgIDxwYXRoIGZpbGw9IiMwMENDMDAiIGQ9Ik0zMi45NjIgMjUuOTU2YzAgMy41NDQtNC40MyA2LjQtNS4zOTUgNi45NzdhLjM2MS4zNjEgMCAwIDEtLjM2NyAwYy0uOTY0LS41NzUtNS4zOTYtMy40MzMtNS4zOTYtNi45Nzd2LTQuMjY3YzAtLjE4Ny4xNTYtLjMzNi4zNDUtLjM0IDMuNDQ3LS4wOTEgMi42NTMtMS41NTMgNS4yMzUtMS41NTMgMi41ODMgMCAxLjc5IDEuNDY0IDUuMjM2IDEuNTUzLjE4OSAwIC4zNC4xNTMuMzQ0LjM0bC0uMDAyIDQuMjY3WiIvPgogICAgPHBhdGggZmlsbD0iI0ZGRkZGRiIgZD0iTTI5LjgxMSAyNS4zMDdhLjI1OC4yNTggMCAwIDAtLjE4LS4wNzRoLS4zMjJ2LTEuMTE1YTIuMTEgMi4xMSAwIDAgMC0uNTUxLTEuNDI1IDEuODQ3IDEuODQ3IDAgMCAwLTEuMzcxLS42MDQgMS44NDkgMS44NDkgMCAwIDAtMS4zNzEuNjA0Yy0uMzYuMzg3LS41NTguODk2LS41NTIgMS40MjV2MS4xMTdoLS4zMjZhLjI1Ni4yNTYgMCAwIDAtLjI1OC4yNTF2Mi45YS4yNTYuMjU2IDAgMCAwIC4yNTguMjUyaDQuNDkzYS4yNzIuMjcyIDAgMCAwIC4xOC0uMDc0LjI1Mi4yNTIgMCAwIDAgLjA3OC0uMTc3di0yLjlhLjI1Ni4yNTYgMCAwIDAtLjA3OC0uMTc4di0uMDAyWm0tMS40MDItLjA3NmgtMi4wNDd2LTEuMTMzYzAtLjI5MS4xMTgtLjU3MS4zMjMtLjc4YS45NDMuOTQzIDAgMCAxIDEuMDg2LS4yMzRjLjEyLjA1NC4yMjkuMTM0LjMxOC4yMzQuMDQ0LjA0OS4wODQuMTAyLjEyLjE1Ny4xMjcuMTg1LjE5OC40LjIwMi42MjNsLS4wMDQgMS4xMzNoLjAwMloiLz4KICAgIDxkZWZzLz4KICA8L2c+Cjwvc3ZnPg==;" vertex="1" parent="1">
                    <mxGeometry x="451" y="143.54999999999998" width="80.3" height="80.3" as="geometry"/>
                </mxCell>
                <mxCell id="30" value="" style="whiteSpace=wrap;html=1;dashed=1;dashPattern=8 8;direction=south;" vertex="1" parent="1">
                    <mxGeometry x="440" y="241" width="260" height="359" as="geometry"/>
                </mxCell>
                <mxCell id="31" value="Dynamic Session 1234" style="text;strokeColor=none;align=center;fillColor=none;html=1;verticalAlign=middle;whiteSpace=wrap;rounded=0;fontSize=14;" vertex="1" parent="1">
                    <mxGeometry x="439.99999999999994" y="241" width="190" height="30" as="geometry"/>
                </mxCell>
                <mxCell id="52" value="List, Read &amp;amp; Update files" style="edgeStyle=none;html=1;entryX=0.75;entryY=1;entryDx=0;entryDy=0;fontSize=14;exitX=0.562;exitY=-0.003;exitDx=0;exitDy=0;exitPerimeter=0;" edge="1" parent="1" source="32" target="34">
                    <mxGeometry x="-0.0006" relative="1" as="geometry">
                        <mxPoint x="620" y="430" as="sourcePoint"/>
                        <mxPoint as="offset"/>
                    </mxGeometry>
                </mxCell>
                <mxCell id="32" value="Generated Python Code" style="shape=image;verticalLabelPosition=bottom;verticalAlign=top;imageAspect=1;aspect=fixed;image=data:image/svg+xml,PHN2ZyB4bWxucz0iaHR0cDovL3d3dy53My5vcmcvMjAwMC9zdmciIHZpZXdCb3g9IjAgMCAxMTMgODAiPjxnIGZpbGw9Im5vbmUiPjxwYXRoIGZpbGw9IiNBMEExQTIiIGQ9Ik0wIDY1LjkwNkMwIDY3LjUzNCAxLjE0OCA2OSAzLjExNiA2OWg3NS43NjhDODAuNTI0IDY5IDgyIDY3Ljg2IDgyIDY1LjkwNlYxMkgwdjUzLjkwNnoiLz48cGF0aCBmaWxsPSIjN0E3QTdBIiBkPSJNNzguODg0IDBIMy4xMTZDMS4xNDggMCAwIDEuNDIxIDAgM3Y5aDgyVjNjMC0xLjU3OS0xLjE0OC0zLTMuMTE2LTMiLz48cGF0aCBmaWxsPSIjMDA3MkM2IiBkPSJNNSAxN2g3MnY0N0g1eiIvPjxwYXRoIGZpbGw9IiNGRkYiIGQ9Ik0zLjEzOCAwQzEuNjUgMCAwIDEuNDc5IDAgMy4xMjJ2NjMuNzU2QzAgNjguNTIgMS42NTEgNzAgMy4xMzggNzBoMy40NjhMNzIgMEgzLjEzOHoiIG9wYWNpdHk9Ii4yIi8+PHBhdGggZmlsbD0iI0ZGRiIgZD0iTTIzIDI4LjM3NUwxMCAyM3YyLjU5MWwxMC4wNTQgMy44ODV2LjA1MUwxMCAzMy40MTFWMzZsMTMtNS4zNzV6Ii8+PHBhdGggZmlsbD0iI0NBRTNGMyIgZD0iTTEwMS44MTggNTcuODNoLS4zMzhjMC0xMS45NC05LjgyOC0yMS44My0yMS42ODYtMjEuODMtMTEuMTgzIDAtMjAuMzMxIDguNTI3LTIxLjY4NyAxOS40NDEtMi43MS0zLjc1MS03LjExNS01Ljc5OC0xMS44NTktNS43OThDMzcuNzc2IDQ5LjY0MyAzMSA1Ni40NjUgMzEgNjQuNjUyIDMxIDczLjE3OSAzNy43NzYgODAgNDYuMjQ4IDgwaDU1LjU3YzYuMSAwIDExLjE4Mi00Ljc3NSAxMS4xODItMTEuMjU2IDAtNi4xNC01LjA4My0xMC45MTQtMTEuMTgyLTEwLjkxNCIvPjxwYXRoIGZpbGw9IiNGRkYiIGQ9Ik0yNiAzM2gxMnYySDI2eiIvPjwvZz48L3N2Zz4=;fontSize=14;" vertex="1" parent="1">
                    <mxGeometry x="550" y="468" width="90" height="90" as="geometry"/>
                </mxCell>
                <mxCell id="33" value="" style="shape=image;verticalLabelPosition=bottom;verticalAlign=top;imageAspect=1;aspect=fixed;image=data:image/svg+xml,PHN2ZyB4bWxucz0iaHR0cDovL3d3dy53My5vcmcvMjAwMC9zdmciIHhtbG5zOnhsaW5rPSJodHRwOi8vd3d3LnczLm9yZy8xOTk5L3hsaW5rIiB2ZXJzaW9uPSIxLjAiIHZpZXdCb3g9IjAgMCAxMTAuNDIxIDEwOS44NDYiPjxkZWZzPjxsaW5lYXJHcmFkaWVudCBpZD0iYSI+PHN0b3Agb2Zmc2V0PSIwIiBzdG9wLWNvbG9yPSIjZmZlMDUyIi8+PHN0b3Agb2Zmc2V0PSIxIiBzdG9wLWNvbG9yPSIjZmZjMzMxIi8+PC9saW5lYXJHcmFkaWVudD48bGluZWFyR3JhZGllbnQgZ3JhZGllbnRVbml0cz0idXNlclNwYWNlT25Vc2UiIHkyPSIxNjguMTAxIiB4Mj0iMTQ3Ljc3NyIgeTE9IjExMS45MjEiIHgxPSI4OS4xMzciIGlkPSJkIiB4bGluazpocmVmPSIjYSIvPjxsaW5lYXJHcmFkaWVudCBpZD0iYiI+PHN0b3Agb2Zmc2V0PSIwIiBzdG9wLWNvbG9yPSIjMzg3ZWI4Ii8+PHN0b3Agb2Zmc2V0PSIxIiBzdG9wLWNvbG9yPSIjMzY2OTk0Ii8+PC9saW5lYXJHcmFkaWVudD48bGluZWFyR3JhZGllbnQgZ3JhZGllbnRVbml0cz0idXNlclNwYWNlT25Vc2UiIHkyPSIxMzEuODUzIiB4Mj0iMTEwLjE0OSIgeTE9Ijc3LjA3IiB4MT0iNTUuNTQ5IiBpZD0iYyIgeGxpbms6aHJlZj0iI2IiLz48L2RlZnM+PGcgY29sb3I9IiMwMDAiPjxwYXRoIHN0eWxlPSJtYXJrZXI6bm9uZSIgZD0iTTk5Ljc1IDY3LjQ2OWMtMjguMDMyIDAtMjYuMjgxIDEyLjE1Ni0yNi4yODEgMTIuMTU2bC4wMzEgMTIuNTk0aDI2Ljc1Vjk2SDYyLjg3NXMtMTcuOTM4LTIuMDM0LTE3LjkzOCAyNi4yNSAxNS42NTcgMjcuMjgxIDE1LjY1NyAyNy4yODFoOS4zNDN2LTEzLjEyNXMtLjUwMy0xNS42NTYgMTUuNDA3LTE1LjY1NmgyNi41MzFzMTQuOTA2LjI0MSAxNC45MDYtMTQuNDA2VjgyLjEyNXMyLjI2My0xNC42NTYtMjcuMDMxLTE0LjY1NnpNODUgNzUuOTM4YTQuODA4IDQuODA4IDAgMDE0LjgxMyA0LjgxMkE0LjgwOCA0LjgwOCAwIDAxODUgODUuNTYzYTQuODA4IDQuODA4IDAgMDEtNC44MTMtNC44MTNBNC44MDggNC44MDggMCAwMTg1IDc1LjkzN3oiIGZpbGw9InVybCgjYykiIG92ZXJmbG93PSJ2aXNpYmxlIiB0cmFuc2Zvcm09InRyYW5zbGF0ZSgtNDQuOTM4IC02Ny40NjkpIi8+PHBhdGggZD0iTTEwMC41NDYgMTc3LjMxNWMyOC4wMzIgMCAyNi4yODEtMTIuMTU2IDI2LjI4MS0xMi4xNTZsLS4wMy0xMi41OTRoLTI2Ljc1di0zLjc4MWgzNy4zNzRzMTcuOTM4IDIuMDM0IDE3LjkzOC0yNi4yNWMwLTI4LjI4NS0xNS42NTctMjcuMjgyLTE1LjY1Ny0yNy4yODJoLTkuMzQzdjEzLjEyNXMuNTAzIDE1LjY1Ny0xNS40MDcgMTUuNjU3aC0yNi41M3MtMTQuOTA3LS4yNDEtMTQuOTA3IDE0LjQwNnYyNC4yMTlzLTIuMjYzIDE0LjY1NiAyNy4wMzEgMTQuNjU2em0xNC43NS04LjQ2OWE0LjgwOCA0LjgwOCAwIDAxLTQuODEyLTQuODEyIDQuODA4IDQuODA4IDAgMDE0LjgxMi00LjgxMyA0LjgwOCA0LjgwOCAwIDAxNC44MTMgNC44MTMgNC44MDggNC44MDggMCAwMS00LjgxMyA0LjgxMnoiIHN0eWxlPSJtYXJrZXI6bm9uZSIgZmlsbD0idXJsKCNkKSIgb3ZlcmZsb3c9InZpc2libGUiIHRyYW5zZm9ybT0idHJhbnNsYXRlKC00NC45MzggLTY3LjQ2OSkiLz48L2c+PC9zdmc+;" vertex="1" parent="1">
                    <mxGeometry x="600" y="518" width="40" height="40" as="geometry"/>
                </mxCell>
                <mxCell id="34" value="" style="shape=image;verticalLabelPosition=bottom;verticalAlign=top;imageAspect=1;aspect=fixed;image=data:image/svg+xml,PHN2ZyB4bWxucz0iaHR0cDovL3d3dy53My5vcmcvMjAwMC9zdmciIHZpZXdCb3g9IjAgMCA0MCA1MCI+PHBhdGggZmlsbC1ydWxlPSJldmVub2RkIiBjbGlwLXJ1bGU9ImV2ZW5vZGQiIGQ9Ik0xIDQ4LjA4NGgyNy41ODJWMTAuMTkzSDF2MzcuODkxeiIgZmlsbD0iI2ZmZiIvPjxwYXRoIGZpbGwtcnVsZT0iZXZlbm9kZCIgY2xpcC1ydWxlPSJldmVub2RkIiBkPSJNMCA0OS4wODRoMjkuNTgyVjkuMTkzSDB2MzkuODkxem0yLTJoMjUuNTgzVjExLjE5M0gydjM1Ljg5MXoiIGZpbGw9IiMwMDc4RDQiLz48cGF0aCBmaWxsLXJ1bGU9ImV2ZW5vZGQiIGNsaXAtcnVsZT0iZXZlbm9kZCIgZD0iTTYuMDE1IDQzLjkwNWgyNy41ODJWNi4wMTRINi4wMTV2MzcuODkxeiIgZmlsbD0iI2ZmZiIvPjxwYXRoIGZpbGwtcnVsZT0iZXZlbm9kZCIgY2xpcC1ydWxlPSJldmVub2RkIiBkPSJNNy4wMTUgNDIuOTA1aDI1LjU4MlY3LjAxNEg3LjAxNXYzNS44OTF6bS0yIDJoMjkuNTgyVjUuMDE0SDUuMDE1djM5Ljg5MXoiIGZpbGw9IiMwMDc4RDQiLz48cGF0aCBmaWxsLXJ1bGU9ImV2ZW5vZGQiIGNsaXAtcnVsZT0iZXZlbm9kZCIgZD0iTTEwLjc1MSAzOC44OWgyNy41ODJWLjk5OUgxMC43NTFWMzguODl6IiBmaWxsPSIjZmZmIi8+PHBhdGggZmlsbC1ydWxlPSJldmVub2RkIiBjbGlwLXJ1bGU9ImV2ZW5vZGQiIGQ9Ik05Ljc1MSAzOS44OTFoMjkuNTgyVjBIOS43NTF2MzkuODkxem0yLTIuMDAxaDI1LjU4MlYySDExLjc1MXYzNS44OXoiIGZpbGw9IiMwMDc4RDQiLz48cGF0aCBmaWxsLXJ1bGU9ImV2ZW5vZGQiIGNsaXAtcnVsZT0iZXZlbm9kZCIgZD0iTTE2LjA0NCA5LjI0M2gxNy44M3YtMmgtMTcuODN2MnptMCA0LjUxNGgxNy44M3YtMmgtMTcuODN2MnptMCA0LjUxM2gxNy44M3YtMmgtMTcuODN2MnptMCA0LjUxNGgxNy44M3YtMmgtMTcuODN2MnptMCA0LjUxM2gxNy44M3YtMmgtMTcuODN2MnptMCA0LjUxNGgxNy44M3YtMmgtMTcuODN2MnoiIGZpbGw9IiMwMDc4RDQiLz48L3N2Zz4=;dashed=1;dashPattern=8 8;fontSize=14;" vertex="1" parent="1">
                    <mxGeometry x="494.35" y="300" width="81.3" height="81.3" as="geometry"/>
                </mxCell>
                <mxCell id="36" value="" style="whiteSpace=wrap;html=1;dashed=1;dashPattern=8 8;direction=south;" vertex="1" parent="1">
                    <mxGeometry x="160" y="241" width="240" height="359" as="geometry"/>
                </mxCell>
                <mxCell id="37" value="" style="aspect=fixed;html=1;points=[];align=center;image;fontSize=12;image=img/lib/azure2/other/Worker_Container_App.svg;" vertex="1" parent="1">
                    <mxGeometry x="161.7" y="147.85" width="78.3" height="76" as="geometry"/>
                </mxCell>
                <mxCell id="55" value="Answer" style="edgeStyle=none;html=1;fontSize=14;" edge="1" parent="1" source="39">
                    <mxGeometry relative="1" as="geometry">
                        <mxPoint x="140" y="510" as="targetPoint"/>
                    </mxGeometry>
                </mxCell>
                <mxCell id="62" style="edgeStyle=none;html=1;fontSize=14;" edge="1" parent="1" source="40" target="41">
                    <mxGeometry relative="1" as="geometry"/>
                </mxCell>
                <mxCell id="39" value="" style="shape=image;verticalLabelPosition=bottom;labelBackgroundColor=default;verticalAlign=top;aspect=fixed;imageAspect=0;image=data:image/svg+xml,PHN2ZyB4bWxucz0iaHR0cDovL3d3dy53My5vcmcvMjAwMC9zdmciIHZpZXdCb3g9IjAgMCAxMTgwIDMyMCI+PHBhdGggZD0ibTM2Ny40NCAxNTMuODRjMCA1Mi4zMiAzMy42IDg4LjggODAuMTYgODguOHM4MC4xNi0zNi40OCA4MC4xNi04OC44LTMzLjYtODguOC04MC4xNi04OC44LTgwLjE2IDM2LjQ4LTgwLjE2IDg4Ljh6bTEyOS42IDBjMCAzNy40NC0yMC40IDYxLjY4LTQ5LjQ0IDYxLjY4cy00OS40NC0yNC4yNC00OS40NC02MS42OCAyMC40LTYxLjY4IDQ5LjQ0LTYxLjY4IDQ5LjQ0IDI0LjI0IDQ5LjQ0IDYxLjY4eiIvPjxwYXRoIGQ9Im02MTQuMjcgMjQyLjY0YzM1LjI4IDAgNTUuNDQtMjkuNzYgNTUuNDQtNjUuNTJzLTIwLjE2LTY1LjUyLTU1LjQ0LTY1LjUyYy0xNi4zMiAwLTI4LjMyIDYuNDgtMzYuMjQgMTUuODR2LTEzLjQ0aC0yOC44djE2OS4yaDI4Ljh2LTU2LjRjNy45MiA5LjM2IDE5LjkyIDE1Ljg0IDM2LjI0IDE1Ljg0em0tMzYuOTYtNjkuMTJjMC0yMy43NiAxMy40NC0zNi43MiAzMS4yLTM2LjcyIDIwLjg4IDAgMzIuMTYgMTYuMzIgMzIuMTYgNDAuMzJzLTExLjI4IDQwLjMyLTMyLjE2IDQwLjMyYy0xNy43NiAwLTMxLjItMTMuMi0zMS4yLTM2LjQ4eiIvPjxwYXRoIGQ9Im03NDcuNjUgMjQyLjY0YzI1LjIgMCA0NS4xMi0xMy4yIDU0LTM1LjI4bC0yNC43Mi05LjM2Yy0zLjg0IDEyLjk2LTE1LjEyIDIwLjE2LTI5LjI4IDIwLjE2LTE4LjQ4IDAtMzEuNDQtMTMuMi0zMy42LTM0LjhoODguMzJ2LTkuNmMwLTM0LjU2LTE5LjQ0LTYyLjE2LTU1LjkyLTYyLjE2cy02MCAyOC41Ni02MCA2NS41MmMwIDM4Ljg4IDI1LjIgNjUuNTIgNjEuMiA2NS41MnptLTEuNDQtMTA2LjhjMTguMjQgMCAyNi44OCAxMiAyNy4xMiAyNS45MmgtNTcuODRjNC4zMi0xNy4wNCAxNS44NC0yNS45MiAzMC43Mi0yNS45MnoiLz48cGF0aCBkPSJtODIzLjk4IDI0MGgyOC44di03My45MmMwLTE4IDEzLjItMjcuNiAyNi4xNi0yNy42IDE1Ljg0IDAgMjIuMDggMTEuMjggMjIuMDggMjYuODh2NzQuNjRoMjguOHYtODMuMDRjMC0yNy4xMi0xNS44NC00NS4zNi00Mi4yNC00NS4zNi0xNi4zMiAwLTI3LjYgNy40NC0zNC44IDE1Ljg0di0xMy40NGgtMjguOHoiLz48cGF0aCBkPSJtMTAxNC4xNyA2Ny42OC02NS4yOCAxNzIuMzJoMzAuNDhsMTQuNjQtMzkuMzZoNzQuNGwxNC44OCAzOS4zNmgzMC45NmwtNjUuMjgtMTcyLjMyem0xNi44IDM0LjA4IDI3LjM2IDcyaC01NC4yNHoiLz48cGF0aCBkPSJtMTE2My42OSA2OC4xOGgtMzAuNzJ2MTcyLjMyaDMwLjcyeiIvPjxwYXRoIGQ9Im0yOTcuMDYgMTMwLjk3YzcuMjYtMjEuNzkgNC43Ni00NS42Ni02Ljg1LTY1LjQ4LTE3LjQ2LTMwLjQtNTIuNTYtNDYuMDQtODYuODQtMzguNjgtMTUuMjUtMTcuMTgtMzcuMTYtMjYuOTUtNjAuMTMtMjYuODEtMzUuMDQtLjA4LTY2LjEzIDIyLjQ4LTc2LjkxIDU1LjgyLTIyLjUxIDQuNjEtNDEuOTQgMTguNy01My4zMSAzOC42Ny0xNy41OSAzMC4zMi0xMy41OCA2OC41NCA5LjkyIDk0LjU0LTcuMjYgMjEuNzktNC43NiA0NS42NiA2Ljg1IDY1LjQ4IDE3LjQ2IDMwLjQgNTIuNTYgNDYuMDQgODYuODQgMzguNjggMTUuMjQgMTcuMTggMzcuMTYgMjYuOTUgNjAuMTMgMjYuOCAzNS4wNi4wOSA2Ni4xNi0yMi40OSA3Ni45NC01NS44NiAyMi41MS00LjYxIDQxLjk0LTE4LjcgNTMuMzEtMzguNjcgMTcuNTctMzAuMzIgMTMuNTUtNjguNTEtOS45NC05NC41MXptLTEyMC4yOCAxNjguMTFjLTE0LjAzLjAyLTI3LjYyLTQuODktMzguMzktMTMuODguNDktLjI2IDEuMzQtLjczIDEuODktMS4wN2w2My43Mi0zNi44YzMuMjYtMS44NSA1LjI2LTUuMzIgNS4yNC05LjA3di04OS44M2wyNi45MyAxNS41NWMuMjkuMTQuNDguNDIuNTIuNzR2NzQuMzljLS4wNCAzMy4wOC0yNi44MyA1OS45LTU5LjkxIDU5Ljk3em0tMTI4Ljg0LTU1LjAzYy03LjAzLTEyLjE0LTkuNTYtMjYuMzctNy4xNS00MC4xOC40Ny4yOCAxLjMuNzkgMS44OSAxLjEzbDYzLjcyIDM2LjhjMy4yMyAxLjg5IDcuMjMgMS44OSAxMC40NyAwbDc3Ljc5LTQ0LjkydjMxLjFjLjAyLjMyLS4xMy42My0uMzguODNsLTY0LjQxIDM3LjE5Yy0yOC42OSAxNi41Mi02NS4zMyA2LjctODEuOTItMjEuOTV6bS0xNi43Ny0xMzkuMDljNy0xMi4xNiAxOC4wNS0yMS40NiAzMS4yMS0yNi4yOSAwIC41NS0uMDMgMS41Mi0uMDMgMi4ydjczLjYxYy0uMDIgMy43NCAxLjk4IDcuMjEgNS4yMyA5LjA2bDc3Ljc5IDQ0LjkxLTI2LjkzIDE1LjU1Yy0uMjcuMTgtLjYxLjIxLS45MS4wOGwtNjQuNDItMzcuMjJjLTI4LjYzLTE2LjU4LTM4LjQ1LTUzLjIxLTIxLjk1LTgxLjg5em0yMjEuMjYgNTEuNDktNzcuNzktNDQuOTIgMjYuOTMtMTUuNTRjLjI3LS4xOC42MS0uMjEuOTEtLjA4bDY0LjQyIDM3LjE5YzI4LjY4IDE2LjU3IDM4LjUxIDUzLjI2IDIxLjk0IDgxLjk0LTcuMDEgMTIuMTQtMTguMDUgMjEuNDQtMzEuMiAyNi4yOHYtNzUuODFjLjAzLTMuNzQtMS45Ni03LjItNS4yLTkuMDZ6bTI2LjgtNDAuMzRjLS40Ny0uMjktMS4zLS43OS0xLjg5LTEuMTNsLTYzLjcyLTM2LjhjLTMuMjMtMS44OS03LjIzLTEuODktMTAuNDcgMGwtNzcuNzkgNDQuOTJ2LTMxLjFjLS4wMi0uMzIuMTMtLjYzLjM4LS44M2w2NC40MS0zNy4xNmMyOC42OS0xNi41NSA2NS4zNy02LjcgODEuOTEgMjIgNi45OSAxMi4xMiA5LjUyIDI2LjMxIDcuMTUgNDAuMXptLTE2OC41MSA1NS40My0yNi45NC0xNS41NWMtLjI5LS4xNC0uNDgtLjQyLS41Mi0uNzR2LTc0LjM5Yy4wMi0zMy4xMiAyNi44OS01OS45NiA2MC4wMS01OS45NCAxNC4wMSAwIDI3LjU3IDQuOTIgMzguMzQgMTMuODgtLjQ5LjI2LTEuMzMuNzMtMS44OSAxLjA3bC02My43MiAzNi44Yy0zLjI2IDEuODUtNS4yNiA1LjMxLTUuMjQgOS4wNmwtLjA0IDg5Ljc5em0xNC42My0zMS41NCAzNC42NS0yMC4wMSAzNC42NSAyMHY0MC4wMWwtMzQuNjUgMjAtMzQuNjUtMjB6Ii8+PC9zdmc+;" vertex="1" parent="1">
                    <mxGeometry x="191.78000000000006" y="390" width="147.52" height="40" as="geometry"/>
                </mxCell>
                <mxCell id="40" value="LangChain&amp;nbsp;" style="text;strokeColor=none;align=center;fillColor=none;html=1;verticalAlign=middle;whiteSpace=wrap;rounded=0;" vertex="1" parent="1">
                    <mxGeometry x="240.00000000000003" y="420" width="89.84" height="30" as="geometry"/>
                </mxCell>
                <mxCell id="50" value="Upload file to session" style="edgeStyle=none;html=1;fontSize=14;" edge="1" parent="1" source="41" target="34">
                    <mxGeometry relative="1" as="geometry"/>
                </mxCell>
                <mxCell id="41" value="Upload/ Download Tool" style="sketch=0;aspect=fixed;html=1;points=[];align=center;image;fontSize=12;image=img/lib/mscae/Developer_Tools.svg;spacingTop=12;" vertex="1" parent="1">
                    <mxGeometry x="265.52" y="271" width="38.2" height="40.64" as="geometry"/>
                </mxCell>
                <mxCell id="51" value="Generate code to execute" style="edgeStyle=none;html=1;fontSize=14;" edge="1" parent="1" source="42" target="32">
                    <mxGeometry relative="1" as="geometry"/>
                </mxCell>
                <mxCell id="42" value="Execute Code Tool" style="sketch=0;aspect=fixed;html=1;points=[];align=center;image;fontSize=12;image=img/lib/mscae/Developer_Tools.svg;" vertex="1" parent="1">
                    <mxGeometry x="266.12" y="510" width="37.6" height="40" as="geometry"/>
                </mxCell>
                <mxCell id="43" value="Dynamic Session Service" style="text;strokeColor=none;align=center;fillColor=none;html=1;verticalAlign=middle;whiteSpace=wrap;rounded=0;fontSize=14;" vertex="1" parent="1">
                    <mxGeometry x="531.3" y="170.85" width="190" height="30" as="geometry"/>
                </mxCell>
                <mxCell id="44" value="Streamlit Container App" style="text;strokeColor=none;align=center;fillColor=none;html=1;verticalAlign=middle;whiteSpace=wrap;rounded=0;fontSize=14;" vertex="1" parent="1">
                    <mxGeometry x="229.99999999999994" y="170.85" width="190" height="30" as="geometry"/>
                </mxCell>
                <mxCell id="49" value="Upload file" style="edgeStyle=none;html=1;fontSize=14;exitX=0.724;exitY=-0.01;exitDx=0;exitDy=0;exitPerimeter=0;" edge="1" parent="1" source="63" target="39">
                    <mxGeometry x="0.409" y="6" relative="1" as="geometry">
                        <mxPoint x="120" y="260" as="sourcePoint"/>
                        <mxPoint x="1" as="offset"/>
                    </mxGeometry>
                </mxCell>
                <mxCell id="56" style="edgeStyle=none;html=1;fontSize=14;" edge="1" parent="1" source="40" target="42">
                    <mxGeometry relative="1" as="geometry">
                        <mxPoint x="140" y="520" as="sourcePoint"/>
                    </mxGeometry>
                </mxCell>
                <mxCell id="57" value="Ask" style="edgeStyle=none;html=1;fontSize=14;exitX=1.011;exitY=0.725;exitDx=0;exitDy=0;exitPerimeter=0;entryX=0;entryY=1;entryDx=0;entryDy=0;" edge="1" parent="1" target="39">
                    <mxGeometry relative="1" as="geometry">
                        <mxPoint x="135.51089000000002" y="479.9499999999998" as="sourcePoint"/>
                    </mxGeometry>
                </mxCell>
                <mxCell id="59" value="Files in the &lt;br&gt;Dynamic Session" style="text;strokeColor=none;align=center;fillColor=none;html=1;verticalAlign=middle;whiteSpace=wrap;rounded=0;fontSize=14;" vertex="1" parent="1">
                    <mxGeometry x="540" y="320" width="190" height="30" as="geometry"/>
                </mxCell>
                <mxCell id="61" value="Return result" style="edgeStyle=none;html=1;entryX=1;entryY=0.75;entryDx=0;entryDy=0;fontSize=14;" edge="1" parent="1">
                    <mxGeometry relative="1" as="geometry">
                        <mxPoint x="520" y="472.55089322808476" as="sourcePoint"/>
                        <mxPoint x="339.3000000000002" y="420" as="targetPoint"/>
                    </mxGeometry>
                </mxCell>
                <mxCell id="63" value="" style="shape=image;verticalLabelPosition=bottom;labelBackgroundColor=default;verticalAlign=top;aspect=fixed;imageAspect=0;image=data:image/png,iVBORw0KGgoAAAANSUhEUgAAAY8AAAGsCAYAAAAloit/AAAKq2lDQ1BJQ0MgUHJvZmlsZQAASImVlwdQk9kWx+/3femFFghFSuhNkE4AKaGHIkgHGyEJEEoIKSiIHVHBtaAiAjZ0UUTBValrRRTbotj7giwKyrpYsKHyPmAI7r557807M3fuLyfnnnvOnXtn/h8AVCWOSJQBKwGQKZSKIwK8GXHxCQx8P8ABBUAFZIBwuBIRKzw8BKA2Of/dPtwF0Nh8y2os17///19NmceXcAGAwlFO4km4mSifQMcgVySWAoDsQf2GC6WiMW5HWVWMFojy/TFOmeDBMU4aZwwYj4mK8EFZFQAChcMRpwBAYaB+Rg43Bc1D8ULZRsgTCFEWoeyRmZnFQ/koymZoDOqjjOVnJv2QJ+VvOZPkOTmcFDlP9DJuBF+BRJTByf0/j+N/W2aGbHIPE3RQUsWBEWM9o2d2Pz0rWM7CpFlhkyzgjcePc6osMHqSuRKfhEnmcXyD5WszZoVMcrLAny3PI2VHTTJf4hc5yeKsCPleyWIf1iRzxFP7ytKj5f5UPluePy81KnaScwQxsyZZkh4ZPBXjI/eLZRHy+vnCAO+pff3lvWdKfuhXwJavlaZGBcp750zVzxeypnJK4uS18fi+flMx0fJ4kdRbvpcoI1wez88IkPslOZHytVL0Qk6tDZefYRonKHySQSTIBULABaGAAyRACvhALOUvko414pMlyhULUlKlDBb6wvgMtpBrPZ1hZ2PnAMDYe524Du/o4+8Qol+Z8uXOQa83ej+h1VO+ePQe1+UDoF4/5TNyBoCmA0DLZ65MnDPhG39LWEACimiFmkAXGAIzYAXsgBNwA17ADwSBMBAF4sF8tOpUkAnEYCHIBytAISgGm8A2UA52g33gIDgCjoEmcBKcAxfBVXAD3AGPQDfoA6/AEPgARiAIwkNUiAZpQnqQMWQJ2UFMyAPyg0KgCCgeSoRSICEkg/KhVVAxVAKVQ3uhGugXqAU6B12GuqAHUA80AL2FvsAITIFVYR3YBJ4BM2EWHAxHwfPgFDgbzoML4A1wGVwFH4Yb4XPwVfgO3A2/gocRgJAROqKPWCFMxAcJQxKQZESMLEWKkFKkCqlDWpEO5BbSjQwinzE4DA3DwFhh3DCBmGgMF5ONWYpZjynHHMQ0YtoxtzA9mCHMdywVq421xLpi2dg4bAp2IbYQW4qtxjZgL2DvYPuwH3A4HB1ninPGBeLicWm4xbj1uJ24etxZXBeuFzeMx+M18ZZ4d3wYnoOX4gvxO/CH8WfwN/F9+E8EMkGPYEfwJyQQhISVhFLCIcJpwk3CC8IIUYloTHQlhhF5xFziRuJ+YivxOrGPOEJSJpmS3ElRpDTSClIZqY50gfSY9I5MJhuQXcizyQLycnIZ+Sj5ErmH/JmiQrGg+FDmUmSUDZQDlLOUB5R3VCrVhOpFTaBKqRuoNdTz1KfUTwo0BWsFtgJPYZlChUKjwk2F14pERWNFluJ8xTzFUsXjitcVB5WISiZKPkocpaVKFUotSveUhpVpyrbKYcqZyuuVDylfVu5XwauYqPip8FQKVPapnFfppSE0Q5oPjUtbRdtPu0DrU8WpmqqyVdNUi1WPqHaqDqmpqDmoxagtUqtQO6XWTUfoJnQ2PYO+kX6Mfpf+RV1HnaXOV1+nXqd+U/2jxjQNLw2+RpFGvcYdjS+aDE0/zXTNzZpNmk+0MFoWWrO1Fmrt0rqgNThNdZrbNO60omnHpj3UhrUttCO0F2vv076mPayjqxOgI9LZoXNeZ1CXruulm6a7Vfe07oAeTc9DT6C3Ve+M3kuGGoPFyGCUMdoZQ/ra+oH6Mv29+p36IwamBtEGKw3qDZ4YkgyZhsmGWw3bDIeM9IxCjfKNao0eGhONmcapxtuNO4w/mpiaxJqsMWky6TfVMGWb5pnWmj42o5p5mmWbVZndNseZM83TzXea37CALRwtUi0qLK5bwpZOlgLLnZZd07HTXaYLp1dNv2dFsWJZ5VjVWvVY061DrFdaN1m/nmE0I2HG5hkdM77bONpk2Oy3eWSrYhtku9K21fatnYUd167C7rY91d7ffpl9s/0bB0sHvsMuh/uONMdQxzWObY7fnJydxE51TgPORs6JzpXO95iqzHDmeuYlF6yLt8syl5Mun12dXKWux1z/crNyS3c75NY/03Qmf+b+mb3uBu4c973u3R4Mj0SPPR7dnvqeHM8qz2dehl48r2qvFyxzVhrrMOu1t4232LvB+6OPq88Sn7O+iG+Ab5Fvp5+KX7Rfud9TfwP/FP9a/6EAx4DFAWcDsYHBgZsD77F12Fx2DXsoyDloSVB7MCU4Mrg8+FmIRYg4pDUUDg0K3RL6eJbxLOGspjAQxg7bEvYk3DQ8O/zX2bjZ4bMrZj+PsI3Ij+iIpEUuiDwU+SHKO2pj1KNos2hZdFuMYszcmJqYj7G+sSWx3XEz4pbEXY3XihfENyfgE2ISqhOG5/jN2Tanb67j3MK5d+eZzls07/J8rfkZ808tUFzAWXA8EZsYm3go8SsnjFPFGU5iJ1UmDXF9uNu5r3hevK28Ab47v4T/Itk9uSS5P8U9ZUvKQKpnamnqoMBHUC54kxaYtjvtY3pY+oH00YzYjPpMQmZiZotQRZgubM/SzVqU1SWyFBWKurNds7dlD4mDxdUSSDJP0ixVRYXRNZmZbLWsJ8cjpyLn08KYhccXKS8SLrqWa5G7LvdFnn/ez4sxi7mL2/L181fk9yxhLdm7FFqatLRtmeGygmV9ywOWH1xBWpG+4reVNitLVr5fFbuqtUCnYHlB7+qA1bWFCoXiwntr3NbsXotZK1jbuc5+3Y5134t4RVeKbYpLi7+u566/8pPtT2U/jW5I3tC50Wnjrk24TcJNdzd7bj5YolySV9K7JXRL41bG1qKt77ct2Ha51KF093bSdtn27rKQsuYdRjs27fhanlp+p8K7or5Su3Jd5cedvJ03d3ntqtuts7t495c9gj339wbsbawyqSrdh9uXs+/5/pj9HT8zf66p1qourv52QHig+2DEwfYa55qaQ9qHNtbCtbLagcNzD9844nukuc6qbm89vb74KDgqO/ryl8Rf7h4LPtZ2nHm87oTxicoGWkNRI9SY2zjUlNrU3Rzf3NUS1NLW6tba8Kv1rwdO6p+sOKV2auNp0umC06Nn8s4MnxWdHTyXcq63bUHbo/Nx52+3z27vvBB84dJF/4vnO1gdZy65Xzp52fVyyxXmlaarTlcbrzlea/jN8beGTqfOxuvO15tvuNxo7ZrZdfqm581zt3xvXbzNvn31zqw7XXej796/N/de933e/f4HGQ/ePMx5OPJo+WPs46InSk9Kn2o/rfrd/Pf6bqfuUz2+PdeeRT571MvtffWH5I+vfQXPqc9LX+i9qOm36z854D9w4+Wcl32vRK9GBgv/VP6z8rXZ6xN/ef11bShuqO+N+M3o2/XvNN8deO/wvm04fPjph8wPIx+LPml+OviZ+bnjS+yXFyMLv+K/ln0z/9b6Pfj749HM0VERR8wZlwIIOuDkZADeHgCAGo9qhRsAkOZM6Olxgya+AcYJ/Cee0Nzj5gRAtRcAMcsBKiMAqESHMfpbBZ3HJFGUF4Dt7eVjUvuO6/QxC7FCpcnaYLadQ8cZh+XgHzah4X+o+58zGMvqAP45/wtTOAPFjTV7bQAAAFZlWElmTU0AKgAAAAgAAYdpAAQAAAABAAAAGgAAAAAAA5KGAAcAAAASAAAARKACAAQAAAABAAABj6ADAAQAAAABAAABrAAAAABBU0NJSQAAAFNjcmVlbnNob3S/DRs8AAAB1mlUWHRYTUw6Y29tLmFkb2JlLnhtcAAAAAAAPHg6eG1wbWV0YSB4bWxuczp4PSJhZG9iZTpuczptZXRhLyIgeDp4bXB0az0iWE1QIENvcmUgNi4wLjAiPgogICA8cmRmOlJERiB4bWxuczpyZGY9Imh0dHA6Ly93d3cudzMub3JnLzE5OTkvMDIvMjItcmRmLXN5bnRheC1ucyMiPgogICAgICA8cmRmOkRlc2NyaXB0aW9uIHJkZjphYm91dD0iIgogICAgICAgICAgICB4bWxuczpleGlmPSJodHRwOi8vbnMuYWRvYmUuY29tL2V4aWYvMS4wLyI+CiAgICAgICAgIDxleGlmOlBpeGVsWURpbWVuc2lvbj40Mjg8L2V4aWY6UGl4ZWxZRGltZW5zaW9uPgogICAgICAgICA8ZXhpZjpQaXhlbFhEaW1lbnNpb24+Mzk5PC9leGlmOlBpeGVsWERpbWVuc2lvbj4KICAgICAgICAgPGV4aWY6VXNlckNvbW1lbnQ+U2NyZWVuc2hvdDwvZXhpZjpVc2VyQ29tbWVudD4KICAgICAgPC9yZGY6RGVzY3JpcHRpb24+CiAgIDwvcmRmOlJERj4KPC94OnhtcG1ldGE+CmM21dkAAEAASURBVHgB7F0FfFRHE584SXB3d3d3L1KkFFooLZS6ffVSimuhLdSpQSnWlpZCcXd3lwDBLUhwiME3/w172XtcLjnIxTqTX+69t77/3bezM7tvx+MeEwkJAoKAICAICAIuIODpQlgJKggIAoKAICAIKASEeUhHEAQEAUFAEHAZAWEeLkMmEQQBQUAQEASEeUgfEAQEAUFAEHAZAWEeLkMmEQQBQUAQEASEeUgfEAQEAUFAEHAZAWEeLkMmEQQBQUAQEASEeUgfEAQEAUFAEHAZAWEeLkMmEQQBQUAQEASEeUgfEAQEAUFAEHAZAWEeLkMmEQQBQUAQEASEeUgfEAQEAUFAEHAZAWEeLkMmEQQBQUAQEASEeUgfEAQEAUFAEHAZAWEeLkMmEQQBQUAQEAS8ExMCmA6Jioqi69evq/+wsDCKiIggbVLEy8uL0qRJQ+nSpaMMGTKQp6en+k/MMkpegoAgIAgIAnEj4JFYxqDu3LlDFy9epNDQUFUqMIjAwEDy9vYmDw8Punv3LkVGRhLC3bhxQ92DgWTJkoXSpk0bd00khCAgCAgCgkCiIZAozOPKlSt04sQJxShy585NAQEB5OPjo5iGo5pCOgETuXDhAt28eZNy5cpFmTJlijW8ozTETRAQBAQBQcB9CLideVy9epWOHDlC2bNnVwzA398/XqooqLLAQG7fvk1nz55V8bNmzSoMxH194T+TMiYnV69eo8yZM/1n6iwVFQQSGgG3rnlg4D9w4ABly5aN0qdPT/FlHKgkVFlY/8AVjOfMmTNKWsmYMWNCY5As0/tz2gzatWuvKlu+fHnolZd7JstyprRC7dt3kP73dm+6fDmUGjWqR59/NiSlVUHKKwgkCwTcxjwgOUBiwCK4n58f+fr6KkagF8fjW3usieAf6x9gIGBCWEh3RuPGT6IrV67agjSoX4eqVq1ke9Y33373M2HRHlStamWqX7+29kry684du2nhomWqHOXKlRbm4UKL3LhxU23CwMQjbdpAu5izZs9XjAOOy5evpqNHj1OhQgXswshD/BAID4+wvT/R77hP/CJKqFSBgNuYBxa/z58/T1A1QYKIa8B3hCYYDf7BgLBGgoV0SDNYaI+NLly4SN9/P87O+8zpsw6Zx59/zqBbt26psChjcmIedhWQh3gjEB4eTg0atraF37plhe0eN5Uqlae//pqp3LD2litXDjt/eYg/Ar/9NpV++PFXFeGdd16jZ7p1jn9kCZniEXAb88BaB2b1WuoA8wAjwGwQ/7jHDiuQ9oOb+az9NfOABILdWs6Yx9q1G1Ua5s+KlWuZSdzmhXp/01nuUyEC589fcFqrZk0bUs6c2en4sZNUp04NNbFxGkE8Y0XgFE/KhP67CLiVeUBVhX9IDabkgYVwPIMpgGGAyYAxgMBY8Aw/zWh0WKQF6cMZLVu2yqH3xo1blI7boaeLjhcvXqI9e/ZTFDO/okUKUYEC+R5IAZLXgQOHeJfZKSpTpqTDMGYkSECbNm8nT64/wms8zDDW+2vXrtP2HbtU2EoVy6ldbNYwzp7PnTtPO3ldJXeunFSqVHG7PCHB3b59R0X38vKkPHly25I6efK0ajc4+Pun4TWtrDY/MPwjR47SoUPBKs2CBfOrdrQFsNwAp6CgI3T02HHKkzsXFS9exFYPqB5RRxD6QN680WVAn0EZNGXMmIHVmelU2H37D2pndQX+IKivsEAOySQTr5tlqpiRd/LdUm7oZybFp+3MMmgMdLzjJ05Sgfz5VP3Rj+MipHX+fAgd57KGMPODNAQcoKJ1RGiXw4eDOfxJypolMzPDHHbvV9asmW0YIn582kS3KbDAGhvKdPz4ScIaUbZsWVSfhKQGwrdZaJujwcfUM35CL2NHZTTWefLkUu+vzVNuUiUCbmMe2GKLFwf/ePE1I4DkMG7cONYzF6InnnhCrWPguX79+lSvXj3usMdp8uTJ1LhxY54Z1lHfewB5xEdaePljo+vXb9DadTGSx8sv9aAff5qggkP6wALpo9DWbTtp0KCRdPr0Gbtk6tatSQP6f6QGIryo33z7E02c+IddGAxcH330NjVt0sDOHQ9jxnxPk6dMs3PXL6qd4/0HDKh9PhlM69dvtvNu2KAODR/eX0l7dh6Wh4MHD9HHHw9Wg4/p9eKLz9nWVsaNn2xT7yDMpIk/UunSJZgpHKGnnu5li/bxx+9SpyceV89z5y2iL78ca1tTgCPq/ckn7xPKZhL05SNHfkkz/51rOqtB7+Pe71CrVs1oytS/aDyXAwQ8Vq+ap+6xW6pDx2fUPX4++OAt6tK5AzVq3Nbmpm90uK5dO9F7775Bc+YuohEjRmtvWrd2oQ0vV9oumAfOzl2iNzFgTapHj27Ur98wmxoUGaBfjBo5yJa+LdP7N2A2ixcvp/G/TiGkZ6VBgz6mNq1b2DnPnr2ABg761M7N+jDy04HUlCUsUHzbpGu3F21l/23CWBo0eKRdmTB5GDv2C8Xg0S7ffPOTSl//TGAVFv5BixfNUO2u/eSaOhFwvvL8CHXGII+XETMYk/B1+ebNm+ngwegZIp7XrVvHC5dHVTB827FhwwbFROAAxqMJaVnT0364QrrQVKNGVapevYp+JEgkeFkfllavXk8vvfS/BxgH0jt54rTaSYb6YkC0Mg6Ewe6ejz4aQEuWrMCjjfDCWRkHPPVajC3g/RswyDfe+OABxgFvMMhhw75wihFmrC+8+L8HGAfi//zzb7bB/NVXnrebvX751VgEob///ldd8YPZdft2rdTz/PmLqX//4XaMAx6o93vvfaKkCxWQf6BCfPe9Pra8tDuuqPfDtJNVejDTtLu39Eft52rbmf1w9+59qo7WNluzZgMtXBi96UHnY14x2+/LDMcR40C4AQNGKGat4/zzz+w4GYcOi6srbWLGe67Hqw+UCROmH3/41Qwm9/9xBGJG5gQGAgvQeJmggoKYi5cTlCdPHvr666/ptddeU4NcwYIFlSTSqVMn5V+xYkX65ZdfqF27dspfx8NsE+k4GySWr1ij0sBP9WqV1UxZO6As27fv0o8uXUNCLtLb73xsF+fJJ9tTu8ejB85PeaYH1cX8BUvo7+mzbOEqVCjLDKeH3Szso94D+ePHiyoMxHzrDA4z7iaN69vSsN5gZr933wHljNk4pKsXenW3DfSYaeotvta4eH7rrY9sjAmDP2btuh7wHzLkM5buInh3W3oeEF+Hk6KtW3co5mTW773331CqrlOnzqhBUIcF44b0UKVKRe1EmvnA4VuWzEypqWTJ4qoOKE+L5o3p8ccfs8Vz5QZtUqZ0SbsocMN/hfJl7dytD662nTU+niGBmHWG2/IVq3FxSNjlpbHHZo0333yJ2rZtaRf2jz/+sT3PYwatCVL0jH8mq7ppN/QHSIIlShQjV9tEp6GvkDSs0iL6FphmubKl7fJFHNRdY50mjZ9ORq6pGAG3qa2grw0KClJnWKFTax0+JIkcOaJ3uIAhYD0EX52D9DO+KNfP6KyYiYJxYK0EW3YdESSdBTx4a8JLjDWSWrWq2QaqVavXUTVmKq4S1hVMMtUJH3/8jqoD/Ddv3mYLhjr/MHYMl8GHateqTj16vmbz27lzj1IrYN3EpB/GjraV7/0P+qmtpKY/7lEHTf9762Xq1KmdevRgXCE5gKCWAuOyEgaU8yExC8qjRg2iokULq2DHjp8glAt07NgJpXN/vO1j9M/02TZmBQlCE3CtU7uGetyxc7d2VozyyzHDFfZghPXqRzNYzM7RlmD+a4xNDRikfh3/ncLpFZZ20AcelnqzWnDChKm28iIduMWHXG07a5pg4pgogLo98xKvdwWpe2DujN5440UO35mKFC6oJlhnz56jXTv32iRDrAWB0L/NyQ+YTv78eemJjm1t6kVMkLQKcc7chbZsoTqMq01sgfkG7frZZ4OVug2TG62OQhh8XIl3q3LlCrZ84Q41mey2AhL/HXIb88CZVKBLly4plQ6YBAYPMBGtitJShDlgaEkDcXGvmQYWyq9du8YLzwXg9QBt4/UIk3x8vNWiIhZhNS1YsJTefed1p9KLDmtet2zZbj5S/Xq1bc+ol6ZNG7fqW5Z8KqkBEQ5YjDZpO3/DgZdNSxDwwwtuMjZfI10d9/SZs3Zqoa++/tG2pnPnTpgOxszjsO3evLFKJK++9p7NG+olTVBtYcEW7dSbJYjuz76svWzXt//3qu1++7YY5op0WrfpYvPTNxjYzvDA6MVpmmtGzZs3suGE/qAnGTpeYl1dbTtruSpWLG9zQntr5nGTvzlxRljsx6L02LHjWO261SYV6jh6YwAmQmC0GjtMEOrVq6U2JuiwptTlSpuY7wjSKlO2lG2dpmjRQjp5dYXKEWUWEgTcxjzwNXm+fPl4FntMdURs2cUWWzAELHxjoNBMxNoMYDJgKPiHtIF1ESy0Iw7OuHJE0PebhNmflTCwYQeUdTC3hrM+Y5FYE1Qr2NljJeyAMWf1+Y0dWBgQC/PMUuu28WEa6DjP9jXF54U8eX83i46DARn/VsK3MI7IzA/+JsMwwwNzTQUK5FUqMTMfSB1aYkG4I8HR61U6TmzphjGDCzEkH4QvySqWpKaHaTtnZYYKM76ENTJTFWiNZ04K2rV7zPYN09gfxtO8eYttEgrigZlocqVNdBxHV6ifhQQBRwi4jXmAMZQsWVIdiHjy5Eml2oE0AqYCRgJ/K/MAcwDjwL9WVWHX1uXLl9WurPLlyyt1iLUiYEhLl660Ojt8Xs1qH1eZR+lSJQhqFxC2R2LNwtyeCncMGGAs8AeZs38MxppxwE/nn4OPXdF07lyIYqxWTLQ/ruaAjedmzRo9oOOHe/ESRXF5gIoVt3eHqgXtYSWoJDSNHz/lAQaF9QpIJ7o8Jj6IZ0olOh1csaU0Xbq0phNBYoQUFheBeWEygYmHK4S+hH7ljB6m7ZylF1+/BQuX2jGOZ57potROM2fOtVMV6fR6PNeVpv89yzZJ0X0N/lgr6d49RuJzpU10+o9yvXf33qNEl7gpEAG3MQ9ggWPXsd12xYoVajcVBgB9xDrUPXqg1C+3vuKFh7oKM2gwjtOnT6t1EaisdBgT6717D9jNojt0aEMBxqCIXS/6RVvMu51e4kHTFSrP6wc4a0oTjrjo9Xx39Yj1AQyIWXi/fc2aVW35YOdXaOgVlpQy0qZNMWshiFTpvoojd56cOkk1QEOthnUCqAaC70sntgB8kzVrFjvVBbbsmgMG4gGf2Ga+5cuVMZNTDN2MD4kB5dUYY5+/qe/OkT2bbeAaOuxzGj/uW9WGFfkbExOf8uXL2K25XLp0WeGDzPGhppkO2uOFF55VajswB6wD6fWaDBYJD6qgMmVK2Q24dhXih8DAADsnMLlixYrYuTl6cLXtHKXhqts6Y+0HE4+3//eKwj6Edxw6oqlT/7bhj7POsM6Fb0LwrREWyU1ypU3MePG9Rx/Bup6WSPfs3R/fqBIulSDgVuYBjHLmzMlbZqvzlsWF6nj1K1eu8ECRWS1862NLwETAMECacUDiOHfunIqTP39+PlaiUqz6cHMRGR26D+840YwJaebmj5Y+++xr3CoJAHpkfAgVX8IHeCbh+BPop9OwBIXvSrBDCN9X1OaFRnMQ7cZ750uULEarVq2zRUf5MLiCmjRuYFND4Llf/2E0cdIfdI0XJU0VGPw0YZfN5Ml/qkcwqMfbdVW7Yk6eOq3ywfcOH374Px3c7po9e1Y1kGo1HM72WrlqLVWuVIG2bd+ppKuR/F2C/hbliy++tcWHlNOxQ1t69bV3lRsksem8sww7bHDkh0nP93pDHfWSL28etUMLevq5c/5UkgfCNeLdZH/8MV1FAcPq8tTzagF2//4gpdP/84/xSqqBpGLSs8+9asd4TD99j3UBk957vx/V4+8tUEZnEo6rbWfm8bD35rlbmNwMHfo5YV3LXLw30zZ3bkGdBQaBtb2rV6+rTRKQBLVk5mqbmPnE974QfwCq1+2wBb1Pn8Hk4+tL/ft9YCtHfNOScCkPAbdt1TWhwFoH1CNQ34AhHON1EOzECg4OVse1Hz58mNUgh/kFOEh79+7lBcR9KgxmN+XKleOF5GqxMg7kY+6lx5ZHk3HAH4OjSfhmwxXKkSM7jf1+tF0UbF3VHyTiAMMdvAiOj8Lef+8NWzgwACvj+OGH0bY1E3x93b5da1t43GBgj41xwP9N3p1jDoIYmPHRls4HzEsvsiK8lb75eqRSr2l3MIHfJv5uU8t9zYvwkADAVHT9ELZb1yd5ElBZ1VHH/ZT19fgyGiq8cb98o53VFeVBufQC788/T7T5/++tV+zSAQPB4KPDfn6faWFAB7M1SWNjdddhqvFGBUg2mpDmH3/+Q0viUGu62nY6/Ue51q0bs0aBdPDBZGyMA/7FDbUjJEJsH3+dv/kBQ8dHfg0btVUbKDABc7VNkL6r1JF3epmE92DOnAV0jCVWodSPQKIwD6xJ4Ch1bLMFQ4AqqmDBgqz7L8ULyYX52Im8anEdX51jnaRq1arUsGFDatGiBb8wxZ22ArZC6kEHATF4WAk7RszBRksqruxHx8CJrbT4hsEkpAsdP76+Bj39dCcaOKA318O+3Nj++OMPYx5Yo+jT51167tmnzSRV3CGDY7bFmp5YfB82tC/17NnNjgkgDGbd/XjWB2YXG2FQ+fnnr6h1q+ZKVWSGw2y1D289Bn3xxXc2L+wCwz5+EL7SNumrr35Qj5gFT/j1ezumoMMhr27dntSPanfVZ6MGE776Ngd6BEBe2BEHgorrM95ObLYddqXhC+rnuf6asINLE9Sho0cPU1hoN1yDYtmB5uERE9fVtjPT9/J2bS0GcWvXrs7fO/Uyk1Ftb52o6ABPdemobx1eoUL66acJpM93c6VNzARNPE13632bNi3o2Wefsjqrk4ofcBSHVIeA241BYeEbX4+HhISofzAOqLHKlCnzgISQUtDFR3RY68DgBp2zVhVYy481CSyEQ8LA9x7OCGmeYNUF1k+cDf7WNDBrxwI+VDz4sM9VAvOFRAjGE9taiatpQnLB7NObF7dxzlFc228hTVy9ck1haV1QR95Y/4I0he2q+nyruMqECQsOSbzMu/TSsuQbn3KYabrSdma8h7lHXvi+A2taWDtzRDhmHtIFJkpgpmDyERGRSkpEXzRPKXjj9RfV5MJMx9U2MePGdY+1NpQLmGdnqQ/rZkKpHwG3Mw+oqfbs2cMHqV1RL3+VKlXU4rdelE39EEsNBYFHRwCbPmDECoQNAFMm/2SbtGDrd6cnn7Nlgo0MetOBzVFuBIEERsCtC+aY7WDHFFQJOHYER5M42hqawHWS5ASBVIdAEd5RpQnrYi0f68Q7rIry5orrtkVr+GPXlt6QocPLVRBwBwJulzzcUWhJUxD4LyIAw0v6CBpH9ceRJTjuBOtCQoKAuxEQ5uFuhCV9QSABEcDaD47LwVEvOPokD9s4gbRRqHABdVx6AmYlSQkCThEQ5uEUHvEUBAQBQUAQcIRAzD5FR77iJggIAoKAICAIOEBAmIcDUMRJEBAEBAFBwDkCwjyc4yO+goAgIAgIAg4QEObhABRxEgQEAUFAEHCOgDAP5/iIryAgCAgCgoADBIR5OABFnAQBQUAQEAScIyDMwzk+4isICAKCgCDgAAFhHg5AESdBQBAQBAQB5wi49WwrR1nfYlvfB05eoTTeHlS6sL2xH0fhxU0QEAQEAUEg+SGQaJLHPT6uOWjXbtowbyHd4+PJdx+7lOBowOxreHh4gqf7KAnCWFJC0PXrN5wmo+ueUPk5zSwenrAEGVeZzWRcDW/GfdT7ixcvqaPNkY7G8VHTjCu+s3xgxuA2T7ISi2A86m4S2SB3Z7vjiPhHIVf676Pkk1LjJgrzQOc8evAQLZk2nSLPn6GcvjcpX8Zos7MAbunSVcoSnwZx5849bJFsofqHDWornT17nu0fnLc5IzxO8D1y5Cib5Lxmczdv8EIiXGKT1X75w+YPe+LAMTbSdd+8eXtsQRLUPS48z527QGfYpGp8ydXw8U03PuFgNx02TUAaR2fx0DcflZzlA6NOsNESF1nfm7jCO/KHLZAZM+bQvHmLHur9wAD73Xe/KFsesC2zYcNmR9nE6mZt9337DnJZFscaPj4esH3y77/zaMWKNWyZ9ECcUfT4YQYE48E75yolRPldzTOpwrtVbRXFA/y9g0G0IfQ2BWcqSLWaN6GsubLQbrZVXb9WtAlONJKXlydh9mcSjpWGFBEScpHy88Fvs2bNp8jICIIN702btqqZWatWzZSRpfXrN9mM6cDELOI9/vhjbEfkAMe/YLNXDhOfMJgE40zo6EvZNGn69OmU7fHly1crBtS6dXNl0hU2oiMjo6h9+1aqWOhgOJQOBnsyZsygjAuhoxQqVECFRz1q1qzKZc2rwi9ZspIwCGCGCVsMsNJ36dJlCgsLo61bd5Kfny/bNcmlLBCaecOOd3DwMcILAMM6oWzMqH37NmxU6jyVLVuKX4i1dO3aNXXsNsIiPat1Q5Qd9s0bNKijzLvCbC0M9ixcuFTZu4ZVQBiywtHesOUOQ1AwG6vrEBgYQCtXrlXYIO60aTNVeJTHEZ7Hjp3k8t5QZYJBqWXLVjN2kWwRsqLCAsacMCCAwTdmu+0wOavbEiaDzfDAyMwbCSxatFzVMyrqLrdrSzpw4BDt2rVXGR2CBcebN28pxop2R3sizaNHT9jKhDZA28EOxkGexMC/YcO6anDAM+pkWqBcuXIdp3eXmjRpoPpay5ZN1aAI3GBS2WTisKWBASpNmjRsHrgB22b/x9a2CG9iDlz37z9o6yOx9dVcuXKqSZDuc8AW/dm0qGh9b4AZDEqVKlVC1Qc255ctW8X1rEd///2vaj8c667bXNs437BhC3Xu3F5hMmXKX8oOCK7oH2hvWHZcsGCJDTMwB/PdQHpoZ+QNcwt6fgOMFixYauufMJhm9jFH/QRtjX6OvNF/0M6HDx9lY2JebOwsO1sVLcL5hHAbBLAZ68P8Htxgy5U1aN26TbbywS48cKtTp4Z6V5Emxhb0OZShbduW6n3UdWjZsjHp8SNz5sy2/g17KCgL+iz6jm4DSIRm/9TvBqwqgszyo1+AAeEdxXt04sQpu2dMWjDZBcY5csSYTlYJpYAft0ked69fpsh5E+nCrNm0OzScArnhLnj60sYDh6lMiVLcQQIVPGfORHc6NCb+NW3btou2b9+lOgoG0zJlSqpBFDNr2HKuUaOKGijw0mIAx4sOqlWrOr8A5bgRQ6hy5fJs1rMYDxiH2dxtQRUPjAOEdMB8WrRooqz3wYY17I4gHgbaVmw6FR1cq8EwAGLwzp07p+rYeDnghkEGDOOxx5qqQR9pYzDDy40XHlbVkDckKAw0+fLlVYNLhw7RDAGW88y8kSaYAQaBYsUKc56llZ1wYIN0NWNEPTAAwrKeVTqDeV3MCNHRvb2jLRiiU2PwLF++NMfJxS/YbraxUk5ZRLTWYcuWHSpfqDLAZPEi4+VwhCfM2uLlxEC5b98BQru1adNcMVJgAcIsG+0Am9coh9mW1vDWvBEfUgHyz5cvt7IOiJfuqac6cnt5KyxPnjylyoCywjJi2rRp7cqk2w71xHHlYJgoEwYntEOJEsWQjY3q1atF9evXUQMX2g/phoZeVYzDFuj+TYEC+dTEAJb0gBMmBbptrZgDn/btW1OVKtFMNba+inKizPhHWN2fzbyt7039+rU5bz/Vb/R7FBYGFe49W/uZba7TgoVLMFMQGC/yxACMOoDpom+ZmFnfDZQDfRrvmEkw9mb2T2sfs7Y74gI/pI/2w6CL9y1TpgxsebSyGhvQHxEGAzoG3Vatmqp2NsuHdOCXPn2MVU1M1lq3bqHa6dChYLv3G3XX44fZv5EOcLS2gbV/6ncD4a3lR1y8y+hLyNf6DOmycuUKKZJxoL5uYx5R1w+Qd+P8dOzx6uTvcZs8Ny6gozsPU7VK1Shf3jzIWxFmLhhoYWIUL7QmzGaefLK96pRoFMw+IKGg4zgjhMMLAalh9uwFiiEgbZA5Y0RDenp6KXfMLMBMYFIWgzM6lKenhxqcMNvVhBkP/FAGM62YPCNVUPjBDYSXCOmCKSFPDOxgUiDMhKx5w10Piig3/lEXEOJrk7cYUOfMWaBmV3C3El4IzKhgvx2EQR7MGAMhpCdtwhQMBGTWAendvRulmBdmgRhUQI7w1HmjDXVa0WX0UHHwg7z0AOWoLc3w1rwRH3GBI3BFfL5VBBzhrvGBP3BBPwGZZULbIRzCoD4Y9BEO8fFvEtoegy7KUqpUcaVShbTpiNav36wGMJiPRdnMtrVijvzNvGIwf7Cv6rzMMNoNV+t7A4YKKQx9H/UGoa4g3X7WNocf3gHUE2Ex2UD5dR/Du4A6mZiZ78aNG7eUhIw+DA2BSY76Z0xdot8Ts90RFyo0hImKilSMG30VZYYEhLCol64TyqnfDbN8SCdLlkys9ruAWxUH76sOj7qadTDfb2v/VgnwT0y5oxRWjt4NhLWWH25mX7I+Y/KKCUVQ0BF4pThyG/PwzlWL7mYrSgULRlKB8KNUmkW2p7MHUgGe9ZqEWUKtWtVYHVXXjnlgoIOqo0iRgjxzL8AD326aO3eRUo3gRYVoeuXKVZUU7HdDlEQnMl9OdBiIihAboW7AOgmeQVCLIT2I9iB0Ku2nHPjHTAtueMbAC9UDxH1NcDfDYuaGGRTKD/vU8IObI/vU8LPmbaal88AVKjcsMELXffz4Ka4vKWkGfpDALl0KVYwHeRYrVoTLGaQkJfhjFgW1AsqBlxKzbTDry5evwFuVUecLJoC4GBQ040UYR3ii/cAQgR0kI0gYUDNBbaYJkhdmf1AdZMuWxa4treEd5Y1BDO0UHHxcqS8KFMivsEU9smTJoqRTMAfgizoAJ7NMKAfc0Y9g1xz1wiwWakO0kXXWvHXrDlq+fI1iHJjBgvFrJoy0IGmhDbZt28kDi7eaoTtao7Binj9/HqUCwuwVpPHGvYmt6WeGmT9/iepX8DffG0gH0O9DpYM2xWC7ePHyB9acrG2OdCDBY9DEu1ChQhk4sT3ysyo+mA7qbWKmAvAPynXs2HElFSANSIVQOWoCUzL7J9wRR9fH2u7wR9mhlsZsHf0c/QXvBtoDEj/UXlAVm2RtU/hVqFCO+99WFR/vKaRirOngHu+FJl0WPX6gLfV4ocPgqsPh3lH/hDvIWn6MRyiH7ksIo5/RFlBn68kU/FIauc2eR/jVc3T3+mS6EVmI/C+nJc/pW8mnZxfyLhrTeK6AhYbAv57BYjahZ6RIB50ML6BJ0XE094+ehXBXuD8bwDNmZtFpIj094zLTcHSPeNEzCke+MW6YKaGMevCrV6+2GuhiQkTfuZI3YkR3OG9Vfn4fbZ0b7lqagsokiPXCUB2AoH+FFAE1GRbxMeuxYqgC3v+JxiYGOzg7w1OXCeF0vXGvCXHhDoyj04lpS2t4a95YoIZa0Gyf+GBmlkmXA1fT3Zo3/OGm+wnUf1iTggoyNoqtLI4wN/M207Nia/rpe0yQoOI0cdB+1qujeiGMoza35u0I79jKbc3XfEY7mv3T9MN9bGW0htPPzsI7Kp/ZLnGVBeMHmAd30zjfbWv/1OWzXmG0Cyo9SKAYL6zP5jthjZsSnt3GPMIun6C7N06SX64qFHkZs31/8s0Ro65KCeAkVBmhFwZh9pQYhJds9+59So2hGSoYGNzQYcuUKaXWcxKjLAmRB/TfUDMlBUGlgMVarfpxpQwJjbmjCZIr5Ylv2KTEO75lTAnhILFpKRjltT6nhDo4K6PbmIezTMVPEBAEBAFBIGUj4LY1j5QNi5ReEBAEBAFBwBkCwjycoSN+goAgIAgIAg4REObhEBZxFAQEAUFAEHCGgDAPZ+iInyAgCAgCgoBDBIR5OIRFHAUBQUAQEAScISDMwxk64icICAKCgCDgEAFhHg5hEUdBQBAQBAQBZwgI83CGjvgJAoKAICAIOERAmIdDWMRREBAEBAFBwBkCwjycoSN+goAgIAgIAg4REObhEBZxFAQEAUFAEHCGgDAPZ+iInyAgCAgCgoBDBNzCPHAqpzYri3vYXUiuNG78JJeK5mr4+Cb+KOnCeh6OpNZkfYaRGpMS+lmnDfsqsDOhydVnHQ+nx8IynyZXn3U8XK1YuPqs07KWwdW6xRUeR7/DoJNuR7w3sD8DgpEm2OzAP8JpQl1w7DjCaX8cxQ/CycqwWyIkCLgLAa+BTAmdOIzCTJ36F9sRrkmDBo+kFs0bP2BrI6HzfNj00rHJS0dGmmJLz9XwsaVjdX/YdGfMmENr126g3/+YznaSGylb7+bzpyO/VIPICrZJgfYYNvyLBH3W9ThwIIi+/e4XZeAGx6fDOJIrz7oNYIHuvff7chnP0GU2blWgQF6XnkuUKKqLRHFhM2vWfKfYabsZ1jLBpKordYsLCwz0/foPU/ZWLl68TJfZ/Cvsju/es0/ZfwET+Hv6vxQRHqH6KqwawpJgpyefY/vjHZTdlgNsix3Gk2C4CqZr/5kxm74Y/R11ZmucQoKAOxBwC/OATeF5bPXMj02oerPxHwwmffoMJlhC82E3GEiaOXOussr1Sd+h1KRxfVW3Gzdu8uA2mhYvWkbePt7K8t0nnwxRVgJLsYnNYcO+oPVs7B7G4mHRD9T740HKyhxMRcKaGix96TS/+voHWs3Wx6YwI0MZMLP7Zdwkmjd3Id1gS2Wl2U746DHfq/zf/6CfsvKFQRgGlJYuXUkTJ/1BY8eOVy9w8fsWyGILD4t750Mu0NChn9MaHsxhqRD5ff3Nj2x8aStVqliefv/9b5q/YAmd45kiZug///wbbdu+k2rVrKbKUa9uLRoy9DP6d9Y8NZOsXr0KOaoDZqXaFvuvv06mfv0+VFYVgTdM0+pnL8Z5x47d1Pujt2k2G1SCISFYwEuoZ1h908a55jCm7R5vReXY5vrWbTuURTZXnsuXi7Zit5fNcqZlq48v9OpOE36bSrnYBoorz02bNlT9Aj/OsLFi5egZRnxA1jLdYcuUrtQN1umchT8SfIyaNWuk+gGYH6w4wnBX1aqV6MTJU3SXbbAEBgQSbKujH0M6GTrscypVsjjVrl1DWYWEve+F/N78762XlUlYMM50bDWyRYsmqg7yIwgkNAJuUVuhkN2f6UwfM8Po1Kkd/cWzqB49utKXX47gF3qK6vwYvEFXr0abksU9TKS+/FIPZah+1r/z6C7bD4cxo09HDFCzyHL8gtSuXV3NrhEedIZNZg4Y8BHlyZNbMQS46TQh4nfr1plef62XsucNc7R1+GUbNWqwsg5nhoXp1k8+eY/q1qlBmEUvWLiUPu79rprFVWEj9Zp02tbw8L/CM0a82D17dCMw0LE/jFcW+8DoYJb1EKsdKlYoS+3atWZ1ymnKzkyw1/PdlSVApBttaSwPjRk9XKkiTp85q9QUZh0woFQ2ygNTpzCTmYNNjyJN83nf/gOUhcsBypwpIx1kw0YJ+QzpYB0z84M86z154rSymAYzsxgsXX3esGEzbWQme/rUWcYlu2JKt2/fdv2ZMUOZoMoxsbBiE5/n2Mrkat3iCn+CJwNzmbl/+dVYNREqUrggrWCrgYMGj1KTjvxsjQ7M5KefJyjpYuLEP6hr1yfJtKsOE6iI5+fnpyYs77/3hmp3+REE3IWA25hHSZ4VlSlTUllggxF7MAFtCxj3GMhB4SyKa8IM77vvf2Gb5tXpNg+KIAyKIKThzy8Q7A136dJRueEnfYZ06oWJLU0/P18lwWC2CPJje9taHaEc7v/4+vqoASsgIIDC2OpeOZ4Jf8UvM/JHnlayhoc/7BK/8/ar9P3YccpqXySXGeooMKxKlcrToIG9FQ59+w5R6oYG9evQu+99onTaiA/9tY93tCldH5a8EB9k1gEW7Uyrdun4GWqPU7xGUKRoYTKfq1atTJfurzdB516W2yMhn8EoYCsc5juL84wZzO7M2XNUvHgRl59hgx2z/yJFCiomCCacge2Hu/qMsqBMnl6edlhYsYnPc2xletS6WuNn4z72xBNt6ZWXe7IabaOSuDBh+vqrT2nylGlsd7swtW/fmrp07qikIPTPVcxcYJP7n39mqz4CO9/leWKCdsZEAZM0SDCw+y0kCLgDAW93JKrT1CqNjh3aKHUM7Gc/yZJI3ry5lU3tIUM+o1CerWsK5IEbz1gvwYBp0hMd29LwEaMpOPg41WP1C8R3kKdHNP+LLU2dhmZc+llfdXx91e6qXDyjv8WzXzWrK1JIeelw+qrD47p23Ub1Ut++dVvZCu/ZsxtNmBCtennu2aeUqiF9unRqhg6VTOjlK2pGCZUb0qtWrRKr8+awKu6gip8/f14zecV8Z/47V4XVNrVx7cOqPWBbqGB+ZWtbPxcuVIBKlSquVIYYWMA0E/I5MDDAJgX5+/vTt9/+RB6sKnvrzZeYEfK6gAvPOVjaAIGBTps2k/r3H04duc2LMkN05RnMXk84nGFjxcrRs+6/1jLlzp3LpbrFhYUHt/1QVldiwtCZJ0ZYY0FfB8F2O/oQ1k2g3vrow/8xMymi/EaN+kphhIezvFAOqTQTM44POQwIi+f169dW9/IjCCQ0Aolmhha2s7FjBWsDIMyW4WaVAiCJ4CVyNNgjPCQWzAgdUWxpOgobl9t7LBEMGdJXMQ6sz/Tr90FcUZQ/7FajTrpemEGj3JCMQNg54+8fXX7zXnne/8Hg4ayOCKYHNtxjcNP5OXpGGTAj15TQzzpd4A/SZXP1WaeDa1x1istfpxVXuLj8dTrWMrlat7jCR78fkfx+RPcTtBFItxv6Fe41tspTfgSBJEQg0ZhHEtbxobJewgvmu3fvo3s8IHbp0kGtqTxUQhJJEBAEBIFUiIAwj1TYqFIlQUAQEATcjYDbFszdXXBJXxAQBAQBQSDpEBDmkXTYS86CgCAgCKRYBIR5pNimk4ILAoKAIJB0CAjzSDrsJWdBQBAQBFIsAsI8UmzTScEFAUFAEEg6BIR5JB32krMgIAgIAikWAWEeKbbppOCCgCAgCCQdAsI8kg57yVkQEAQEgRSLgDCPFNt0UnBBQBAQBJIOAWEeSYe95CwICAKCQIpFQJhHim06KbggIAgIAkmHgFuZB04sxWmhIBgMcifBONOyZauUFbXEyM+ddZG0BQFBQBBI7gi4jXlMmzZDmVaFDW0cPQ7zru6kKWw0B0aSYI0Px1+7Oz931kXSFgQEAUEguSMQY+QhAUsKmxyw3z14cB9bqnv3HlD2xmFr+YmOj1O//sOU0Zs333hJ2fj4YvS3ypLcwIEfK5OtG9hsK4zbwAY6rKHBNjmMA4FgC/xg0GGqXKmCMn4E+xeLF69gM7ZpldGcVq2aqXBgWiPYqA5sabz66vM2u+fKU34EAUFAEBAEHhoBt0gely5dphw5oy3D6ZIVYUt8MK0J9RUs7rVs0YSGD+tPf/45g/76ayYN6P8RdejQllauWqsspoFxNG/WiGA5DyY4N23eppNSTKRpk4a0fMVq5QbDSdVrVFF2N65dv24Lt279JoI1vnLlS7MN8802d7kRBAQBQUAQeDQE3MI8smfPSsFHjqqSaQtqsCsNgsW78LBwZXccVtMiIiMonC0M+vn5KQt7sBT4Qq/uFMHSy7ff/szSSRiHiWTG0kbFx8+AgZ8qe+awN+6Mwjgu1lxy5cpJlatUcBZU/AQBQUAQEARcQMAtaiswiHr1atOw4V/QLbbnDZvWJtWsWVXZNJ8/fzG1Y6nCj03TIixMbX7c+136489/CHbAYa61caP6tHbNBiVB1KheRSUDRrRt6w66ceOGmSzfe9hsml++FErVq1emT0euortgIDlzWMLKoyAgCAgCgsDDIuBWS4Kwwwyby47sLkMiwG4sbaMZ97BbrsNCAoE0ArLaNUdcSDSm3W4rAIij7UGDKWnb6dZw8iwICAKCgCDgOgJuZR6uF0diCAKCgCAgCKQEBNyy5pESKi5lFAQEAUFAEHh4BIR5PDx2ElMQEAQEgf8sAsI8/rNNLxUXBAQBQeDhEXDLbitdnKiou7zYHclbbaO0k1wFAUFAEBAE3ICAj7cXbwzy5o1EiSMTuG3BHIzj5q0wN0AkSQoCgoAgIAjEhkBggF+iMBC3sShIHEKCgCAgCAgCiYtAYo29bmMeoqpK3A4juQkCgoAgAAQSa+x1G/OQZhQEBAFBQBBIvQgI80i9bSs1EwQEAUHAbQgI83AbtJKwICAICAKpFwFhHqm3baVmgoAgIAi4DQFhHm6DVhIWBAQBQSD1IiDMI/W2rdRMEBAEBAG3ISDMw23QSsKCgCAgCKReBNx6PElygA0mcfcfCKK8eXJRwYIF3F6ktes2UIYM6alsmdJ2ecXmbhcoloewsDs0dMhIqlWrJnny0QPVqlWhZctX0pOdOjiMsWXLVrb97k0V2ca7kCDwX0YgIiKcrl+7xhZJ7yiroikVC9g6grntdOnTk4+Pb7KoRqpnHocOHaGdO3bSkUOH6ft9P9GwYQMZfB+3gX8l9KrNmqGZSWzuZpjY7g8dDqb8zPiaNmtM58+fJxjZOnfmXGzB6cqVq3zGTbQhrVgDiYcgkMoRAOMIvXyZsmXLQoGBuWyG51JitfHO37x5iy5cuESZMmdOFgwk1TMPdJSCBQpQ6zYt6Y8//qZdu/bQli3b2DzuLapYoTyBuVy7dp1gd/3Z57rR2LG/0I3rN+hAUBC9/97/qFSpEnTgwEGaPWs+3bx9i158oYeyz75y1VoKu3ObqteoRm3btqLfp06joMNHKOR8CD3zzNO2/ml1X83xEDdvvjxUvmwZNrn7F1tFJHrrrVfo+LETtGTpchW3TNnS1PnJjup+1Yo1LD0dpH379yvzu61bt1TuEWz7/dtvf6DIiCiqVLk8NW3a2JbvrFnzaMmSZUpKadmymV24Clzv0aO/pjT+/vTiiz3pp5/GU6B/ALVnO/HFihW1pSE3gkBKRgASB97r9OnTpeRqqLLD4io0GpBALl++QpmzZE3yOiW7NY9jpy7Rqo2HaNbiXfT3vO00b9le2rzzON0Je/SzsgoVLkhHgo/SdbZ9/njbNtSocQN6umtnHmAr80C7QpnFBaP44MO3KUvmTIpxoIWKFy9GHTq0pYwZM9DGTVsoLDyMatSoSgMH9aXVq9cyI7pJO3fupgH9P6ZWraIHdsRz5I64ZcqWoh7MqH6bOIWGDOlHb775Mk1ju+3wa9igHg3idLds3qokDKRTp05NatiwHtthz0k3b9yEk6Lt23dRWFgENWC/RYuWamd1bdGiCQ0Y0EeVzxoOJnwhfaG8c+cuoNLMIKuzffj58xbZpSEPgkBKRgCqqsDAgJRchQfKjvqgXsmBkg3zwCm8YBobtx+jK9fvUNbMaalYwWyUxs+bgk9cZCayhy6GxgycroIHu+fr12+kqlUqq6iZMmdUjdC37yDKzeshWXmGAq6eiZnGN9/8QG3atLJlMWPGLNrMgznWGu7cuq3cYV/dtKHu43NfiON8THLknoXFThAGcQ8PLzWQQ4oAefEMA3T92o04dbQQZf38fChdurTUq1cPjhVDZvkchcuWNXrmEhkRSf4sgWTPkZ06dHw8JgG5EwRSOAJ45813NIVXRxUf9UG9kgMlG+ZxMPg8nQ25RiWL5qTHm5aj2lUKU4XSealxnRJUr3pRBdiqDYfo9p3oQdYV8BYsXEwDBw6jAgXyU2GWPjRh9o3BGrP2c2fPK+fQy6G82OxFx4+foOvXryu39LxIdfhIMC1bukJHtbsGBARSvvz5adDgEfTvrLk2v9jcdQCopfr2HUijPvuSnujUXjlPnz6T+vcfQrVr17CtzdxjpubhGdNUadOmpQMHg6hKlQpqfQP127tvv072gauzcG3bPkbLV6xmyWu5Wk95ILI4CAKCgCDgAAG32fO4dj16hu4gTzsnMIyz569S8MmLlCt7BqpTtbCdv344w2FWbzpMVcrlp6IskSQUYfaPf+gUQ0Ov0IQJk+iVV3rR7DkLKFPGjNSMF6lBYWFhPMt3vggdHh7OC9UP7oSIzR3pQuLAbMKTmcOSJcvUQneNGlU4rzTwjpWwA0uHgRiLnRhxUWzhMJMJZ5WZTi+udMRfEEgJCJw+dZJVz8VjLeqWLdvZ5tAtypolM5UpUyrWcI/qcST4GH399Q/UvftTdJY3utSqVY0WLlpG3bo++VBJ798fRHny5nMaN306f6f+CeEZM51NiNRcSCOSrQsuXXNAqaqOn75EObOnp8plYwA5dSaU1m4Nprv3RbTcOTIQjJwcP3U5QY1MYdAG4wBlypSRcubIQRMn/s7rFbepXr3athrFxTgQ0BHjcOYOP0g/KAMod+7clIPVR/EZxM0w8WEcSD+2cFDXmekhrJAgkNoR+Onn39Q7MW/eYpo2bYbbqrt61Trq0rkjlS9XhsqXL8MTxkg6c/qs2/JLrITvK+oTK7uYfIKCQ9QaBqSIymXzs+4/xu/46cu89nGUVVVE61gqqF2lCA+wHiyZsPro2AWas3QP5cianupWL6xUTDExH/0OC+hJRaVLl0yqrCVfQeA/hwAmbdgsAmngytWrdD7kAg0f/oVaA3yc1blTf8dOyHv04Qdv0aZNW6lEyWJ0gzesbN2yg15//QUa8ekYatyoPi1YsIQyZExPb77xEn3xxbeKOVSrVokee6yZ0iwsW7ZKfWtWoGA+msebUtq3b6Owhtbh88+/sYWvXKUijRnzPTM0P3qLN9Fk5vXX5ExJJnmcOBtK6QLTUCWWNkzGcZTVVxu2RTMOAHf6XLS6CgvqpXg9pGHNYlQwbxYKuXSd1m0JTs7YStkEAUEgGSMAdfKUqX/xjsR1lIHXNe/yGANNwKcjBtD4XyfT558NoQ/ef5MmTfpT7ZDctHErb/PfThcuXuQ1x0NUIH8+OnXqNG82yUa9nu/Ofjt4V2g4b5lvSHPv71xEevXq1aKePbqq77/AfDRt3rzdLvwVVptjc0vPHt2SPeNAHZKMedy8GUY5sqVjQA2RgwtUKF9W6tK2itplhQJisbwBMwwYdQ/w9+U46alGpYJUulhOtcCOMEKCgCAgCLiKANS4r7zck0aNGkwzZsxR0XNkj15PxTqop2fMTshSJYvz915B/G1XGBUrWoSm/z2Lt7dXps6dO1CD+nXo3fc+Ud+OpfHzVd+VvPbqC3EWB4zCDF+iRDF65+1X6fux42j37n1xxk/qAEnGPKCGuvMIds5z58iY1NhJ/oKAIJCCEcCHwiNGjKb3P+hHnTq1s6vJM906M0PoQ4OHjKKnn+6k1iXTpktH+fjjXjCNxfxdWLFiRWjCb1PVN2IBAf787VcVtekGm2127d5rSw9rivjXhK31e/cdUOlgk44Ov3bdRl5v/YNu83orwiR3SrLdVpt2HKOTvCjesmFptRBuBepiKH/nEHWPuXgA+fl6Wb3Vtx/4eBBSSnwJnF5x+1h2JkGkTJs2ML7JJVo4dLAb/GFjpkyZWKz2Uh8GpoavZhMNQMnoP4lAXLut4gLF3AnpLOzt23d4nSRmt6P12VFcc+ejGR6qNOy+dPZ9SnLZbZVkC+blSuSmU+eu0OLVB3jrbXb+ojuQvA3urAG/du2WvlXXKF5FD7l4nQ4fv0DZs8Z97MCePfsoS5ZMlCtXLrp9+zZdvXqN8ubNY5emfjh58hSVZPF0F38tXqFieeV87tx5OsjiKtZcGvLi2FHednfq1CmegeTl7XK5adPGLYRFG3xxvmzZSsKid37Whc76dx5Vq16Jj0PZywwpLUGfWZd3b+GIAVcJuzUaNqpHKB+2FZ45e44qVCjnajISXhAQBFxAAOsV8SGTcSC89dlRGubORzN8bDs2HaWR1G5Jxjz8ef2iSe2StG7rEdobdMZlHLDzqlrFgvGKd3+3L39RHq7OsQJDwTlSN27eJHxpfeXqFWrN50XhXCrscNjMi2L3yIMqVixHOXPmUP/YbXGVd2Ts33+A2vBOjDmz5/NxIuF8RlVeusf60WOcXhr+DuTEidO83TYbh72iyoZvKPBlOr5Qv8n5gXngcLM1a9aRF+tUy5YrrZjZ0qXLlWhct25tPr9qO13j87Xq169Nd26HUciFC4TTgVE+MA/QZf6Ycd3aDUq8xfEkQoKAICAIJCYCScY8UMkM6dOw2qoMhbJ0EcWH+8WLeK0Eu7RwbInLdO+u2jqHwb5K1Urqq/KMmTKwRHKHQnib3h3+EBDfWeRliQKMQ1NUVJQKW5Xj+PhGz0ZwxeJZ1ixZ+FuUu/x1doja1gfh6dChYCpcpLCOTutZl3mOT8MtzjpSRRy+cKECVJ6lhwULFrNUE6lUUlCZHT16TDG4Zs0bq+9G0t3Xsxbi8EFBh2xp7uBzrUqVKsnM6qTSs+IbFSFBQBCIQQDrDHh3namAYkKnjDvUx1w/ScpSP8QInLDFxWCbOUPiH16GDwN9eWcExMSoyLu8FsJH294n69kxa9dsoKq8bxv7wn287zMPvmZmdRikF2zxg8RykSWKAgXy8Rlam6gcfxCkqUHDumqA38OLaNnu7+aAqgv5RPCmAXwwiXsskmXkr9pPnz4T6weHOs2IyAhmWlHMpApSQECMvlX7y1UQ+K8jANUQjjFPTeuDqI+p8krKNk6y3VaJWent23bSqpVrlSpIc219dVQOP2YqUG2BgoIO80m8wXTkcDCdOXOWcubKoc6BypU7p1JPQRo4fOQIH/0cvcUPX4lXqVLJLtk1zHygYipSNEYawba/hQuXUPESRakgfzx0IeQiM42zSnqxi2x58GXVGM7fAnMKOnhYxUkuxmEsRZVHQSBJEYDhpBB+r2ByATP2lEzY6IP1WtQH9UoOlGS7rZJD5WMrA6QAdDZ9bIk1HL46xVZjkJZSnDEja/wLrCLDondZttlhitToILHlaaahw6EcIF0WM4zcCwKCAM6O+29aEkyMs62EeSTBG4ZdXxA/s2bNkgS5S5aCgCCQ2hFIDOaR5Gseqb0RHdUP9jPwLyQICAKCQEpF4D+x5pFSG0fKLQgIAoJAckVAmEdybRkplyAgCAgCyRgBYR7JuHGkaIKAICAIJFcEhHkk15aRcgkCgoAgkIwREOaRjBtHiiYICAKCQHJFwG3Mw8f7wZNwkysIUi5BQBAQBFILAok19rqNefj6yi7g1NIZpR6CgCCQchBIrLHXbR8JAmocYx7OZzdF8NlNQoKAICAICALuQwASBxgHrK4mBrmVeSRGBSQPQUAQEAQEgcRHIHFYVOLXS3IUBAQBQUAQcCMCwjzcCK4kLQgIAoJAakVAmEdqbVmplyAgCAgCbkRAmIcbwZWkBQFBQBBIrQgI80itLSv1EgQEAUHAjQgI83AjuJK0ICAICAKpFQFhHqm1ZaVegoAgIAi4EQFhHm4EV5IWBAQBQSC1IpBszhAJuXSdNu04xkbB7aHOnDGAalUpTK7YCLdPQZ4EAUFAEBAEEhqBZMM8Dh0NYWP1UZQ/T2ZbHW/dDqe9QWfp9p0IalSnBHl6eNj85EYQEAQEAUEg6RBINszj7t17lDVzWqpSLr8NjQuXbtCBw+co+MRFioy8S80alBIGYkNHbgQBQUAQSDoEks2aB2SKB+QKw+HEmcu0eNX+R0bq4sVLNGXqXw+dzt27d+ngwUOEdBKaZs2aT5cvh8Yr2QsXLtKcuQvjFVYCCQKCgCCQ0AgkG8kDSx0Gr1D1DPT3pcr3JRGosCCFPCpFRETSmdNnHzqZefMX0/Vr12n9+s301lsvU9GihR86LWvEChXKUrp0aa3ODp8zZEhP5cqWdujniiOY4bJlqyhXrpxUpkxJW9SZM+dS+vTpqHjxonTp0mW6cuUqNWhQh7Zs2c7qxUgKCPCnkydPq/AlSxZLUBxshZAbQeC759QWAABAAElEQVQ/isCQIZ/RU091pGLFiigEgoKO0LS/ZlDfT95PNogkG+YBRCxr5RTAzEOrsbQKy1XkMDAuWLBERSvPg3OTxg1o0+Zt1L//cPLx8aF+/T6g2bMX0I4du+lOWBgNHvQxTZr0J509d56KFilE9XnAHD36OwoMCKDOndtTm9YtCAPujRs36XzIhQcGTeQ3lyWCm7duU5HCBenM2XOUOVMmlc+mTdto4qTfOf49+vCDt+iHH3+loUM+oeMnTtGaNevVAN39mS505MhR+nv6LDV4v/H6i/TVVz+QFx+33LJFE6pSpaKqy9Wr15Tk0alTOxoz5ntKk8aP3nrzZZozZyFt37GLj2b2pQH9P6Sff5lI4WHhdPTYCXrt1V5UtmwpOwg9PT2pXLnSdNrCULFBoXz5MpQ1axbFPM6dC6F79+4RrlmyRK9LwT88PJxCQi4+gINdJvIgCAgCLiGA9/r9D/rR9999TpFRUfTBh/3o88+GuJSGuwMnG7XVA5wjgWoexgyhadOGNGrUYNqwYTPbGImi8uXK0ODBfehyaCjBvwUPyvjHDPvw4WA6xP8VmdG0a9ea/vprJs/wS1Ht2tUJaiXQ+PGTae26jVT8/qzALCrSa9S4Po0aOUgN2GNGD2emcIXu3LlDP/08QXWAD95/UzGoihXLqZn8sqUrqWaNqnT9+g01QI/9YTy1atVMDdzr12+iY8dP2DEO5AcGdpMZ2JXQK7weFEk9e3RTDGMdh0eeSG/FirUqzW7dOtPrr/ViaWmTWVSn92AaO3fupe3bd6lwuXLloP37g+wko23bdin/wMAAp2mJpyAgCLiGQKlSxemzUUOYaQygj3sPUvdaCnEtJfeFTj7Mw3115Fl7tIB17ep1NThjlg7yT5NGDbz9+g9TM2gM5nfuhNGggb2VVNK37xClovFnFU3OnDmoS5eOHC6CXnjhWXrnnddoxow5Dkvt7+9P/v5pOP3ofNLwM1Q9GPA9Pb1U2hEREdS0SQNavnw1HQw6TCVKFLOlFclh06VNS3Vq16Bq1SrTV19+Stu27VQMxxbo/g3ivfP2q/T92HG0Z88+8mVpCuTj66Pqhns/P18uj7+SrPAcF0HCqFOnhvo/e/a8Cl6YpailzOTMDly1akV68sn2vAZ0OK4kxV8QEAQeBgF+F5MrJSu1lbtA+v33v2k+r1XUr1+bvO8zEjOvjBkzqFk5BnHM2IcO+5zSp0tH2bJlpSc6tqXhI0ZTcPBxqle3Ji1esoIusLoKaqDXX3/BTMbpPdRAz7AE8O57fRQDeuft16JVQrxAXqF8Wbu4PXt2owkTplKu3DlZTdac/vhzBnmxeqk2D+gz/53LO848qUaNKioOJKBVK9fSbVaTgcFhcP+o90C6efMmDR/Wj3bt3mtL29G3Mtd4/Wbz5u2Ea548ufl+G9WsWU1dw1jdVb58aSW9QA3WvHljSps20JYepJJdu/ZSkSIFbW5yIwgIAo+OAKT8Tz4ZQmO+HK4Se+utj5TWwpy8PXouj5ZCsrEkuGrjIfUhYL3qRR3WCGseMxfuoBe71nXoH5sjmIavnx/P4qvzukCa2IIpyQMDpKbbt+8o6QHPmIlDHaXjQ/qAqUcvLy/6beLvFMHPIMz2n3v2aXUf2w8kDsTDWoMzgioK+WJdBhIL4vlxPXAPOsHrJFCjYdEe6w5IE/8glBVhH4awHuPp6aHyRv5xlfNh8pA4goAg4ByBQYNH0tNPdeINK0VUQOzwnDZtplo7dR4z8XxTPfPYvXufGlRLly7hFlQxwOIfhJm9o9l9QmcMZjFy5FfUtWsnnvUXSujkJT1BQBAQBOJEINkwD2zDXb3Jue48Z7b01LZZ+TgrJQEEAUFAEBAE3ItAsmEeqGbo1Vu8YB2tAnqg2vwRCJhHYszsH8hbHAQBQUAQEATsEEhWzMOuZPIgCAgCgoAgkGwRcL5qm2yLLQUTBAQBQUAQSEoEhHkkJfqStyAgCAgCKRQBYR4ptOGk2IKAICAIJCUCwjySEn3JWxAQBASBFIqAMI8U2nBSbEFAEBAEkhIBYR5Jib7kLQgIAoJACkVAmEcKbTgptiAgCAgCSYmAMI+kRF/yFgQEAUEghSIgzCOFNpwUWxAQBASBpERAmEdSoi95CwKCgCCQQhEQ5pFCG06KLQgIAoJAUiIgzCMp0Ze8BQFBQBBIoQgI80ihDSfFFgQEAUEgKREQ5pGU6EvegoAgIAikUASEeaTQhpNiCwKCgCCQlAi4jXns3LnHVi+YgnVEGzZspi1btjvyitVt5aq1tHNXTNrWgGfPnmdbvzNszkeCj9H/3u5NW7buoNmzF9DFi5doytS/bP7xvXnYeDp92B6HHWKkk9A0bvykeCe5ffsuiq094p2IBBQEBIH/PAJuYx4//jTBBu6ECVMIg6eVQkOv0NVr163OTp9DL1+ha1djjxMWFkZnz523pbF61Trq0rkjlS9XhsqXL0MREZF05vRZm398bx42nk5/3vzFtG3bTho8eBQdPhysnRPkWr9e7Xinkz9/XsqTJ1e8w0tAQUAQEAQcIeDtyNFdbl99/QPduHGTQkIuUNeuT9qyCQ+PoOEjvqCrV69RkSKFqMdzXemzz7+hiPBwatGyCTWoX4cmTJhKB3jmfo4ZQ6/nu9Pmzdvo7+mzKH36dPTWmy/T3r376fc/ppOPjw/ly5dHpR0REUHLlq2i/QeCqGCh/DRv3iJq376Nze9z5MHMpFq1SlS2bGmay/6vvNxT+VvLmj9fXtrEefbvP1zl0a/fB/T11z+qMufMmZ169epOQ4d+Tl7eXtSyRRPKy2UYPfo7CgwIoM6d21Ob1i0UA0X9z3P9ixYtbKs/bpDfZWaMx4+foAoVytGxY8epfv3a9ETHx2nixD9o+45d5OvrS++9+zr9+OMEQv6zZs2nvHlz0/R/ZtOwoX1p8pRpFHTwMOXKnZNefqmHXXmqVKmo8oPU4eXlpf4XLFhCGTKmpzdef4lGfDrahv8br7+oyhMeFk5Hj52g117txfiUsiuvPAgCgsB/GwG3SR4mrHfv3VOP16/foBdfeI5GDB9A0/78xxYEqisM+GNGDyeona5eu6YGv0qVytOsf+fRzZs31az90xEDqH271ire2B/GU6tWzShr1iy0ceMWmvDb7zTy04E8EL5oSxeMpF69WtSzR1fy4D8M3Jo2b95Od3hwbNq0oWIauXnA7dA+Om2EcVRWSC+DB/ehy6GhBAmnB6dbq1Y1mj9/CTOhCDrGAz8YBwbqv/6aSeV4wK1du7oa5JHm+PGTae26jVS8WBE82lF0fs8qxpiBGSKwWLp0lSrzuvWb1HPNGlVZzbeDbjAeCL9y5RoqV640D/pXVTiUo2XLpnTkyFHFZM3y6MzCmCGj7KdOnabsObKp/LaySs/E//SZsyr9bt060+uv9aL1nL+QICAICAImAm5jHv5p/OjWrdt0jxkHBlZPz+isvLw81TNm/JqioqLIx9tHPfr4eNP+/UH03fe/8MBcnW7fCbO54wbpgSI5frq0aalO7RoEJoP0vb29bf4qkJOfyMhISuPnqySX1159Qc3Ec+TIbhfDWtY0XCeQf5o0arB+971P1MwfgzAY1VdffqqY3KRJfyqJxj/An3LmzEFdunQkSFcvvPAsvfPOazRjxhy7fPSDv38aCuA4AYEBqj6enh4srUSRL6cN8vH1IZQbDGo6S125Wf2EfEEI58UYQBKD5JY5cya78qhAxk/nzh2URIc6oJ1M/IEtyI/x8ff3ZyYb3QZGdLkVBASB/zgCbmMenXnAxMD0/vt9qXGj+grme3fv0egx39N77Na1ayfKnCUz7dmzT6mNdu7cTb0/HqQGwyKFCxLWQ6bywjYGsMDAQCpYsIDyh6oK1LNnN4Iqa/acBYoZtW/Xij76aAB9Mfpb5a9/PDxY5uB/TenSpaW9+w5Q9eqVVR6Iv2v3Xjp69DgNHPSpDkbWsto87t+AyYFZQdV15sw5On8+hD4d+SWdPHmasmXPyuqmtrR48Qqaz6qhs2fP0cRJf9CIEaPpu+9+oRo1q1qTc/js6QFmkJ6KsaTyUe+BBDVTw4Z1qE6dGjSOpZgWzZuoeDpc9RpV1GYB5An8zPJA3Xb8+ElbPhN+m0pLlqxQzKpGjcpk4o91EZNM/Ex3uRcEBIH/LgIePJOPnsq7AQNIFFFRd1lXHz07Hjrsc3rpxR6UKVMG24z5zp07lIZn8iDzHjN1DNDmwBXOKhfo/TVhFo7i69k34ui8dBhHVzOf27fv8Ow6On9ISDotR2W1poVNAPgHEwHhHmn4+UVLKCgbVES6figfpBms7fzD6xSaChbMr9Rn+tnRFenodB35azfUDRhBEjPLo+s2c+ZcpeqrW7cmmXVHfBMXnZ5cBQFBQBBwhIBbF8z1wqzOuEL5smqmqwdouOuB1XrviAmYjAPh9aCNe5CjONE+9r9mnppxIIRZLkdltU+F7quWYoQ3DNjmAA/GZ+alyweV0vPPP2NLzmSQNkfLjZmuxcvu0czPLA/qhl1ehw4doSZNGqg4Zt3hYMa1S1QeBAFBQBCwIOBWycOSlzwKAoKAICAIpBIEYqbNqaRCUg1BQBAQBAQB9yMgzMP9GEsOgoAgIAikOgSEeaS6JpUKCQKCgCDgfgSEebgfY8lBEBAEBIFUh4Awj1TXpFIhQUAQEATcj4AwD/djLDkIAoKAIJDqEBDmkeqaVCokCAgCgoD7ERDm4X6MJQdBQBAQBFIdAsI8Ul2TSoUEAUFAEHA/Am49ngSnZkVGRhEOz3LjEVruR0lyEAQEAUEgGSOAI45w/Ks32xMyzoF1a4nddjwJGEcEGAduhAQBQUAQEATcjgCYiE8iMRC3qa2UxCGMw+2dRTIQBAQBQUAjgMk6xt7EILcxD5E3EqP5JA9BQBAQBOwRSKyx133MQ6QO+xaVJ0FAEBAEEgGBxFoqcBvzSASMJAtBQBAQBASBJEJAmEcSAS/ZCgKCgCCQkhEQ5pGSW0/KLggIAoJAEiHg1u884qzTqVN0b9ESunfgIHmwPXJndI/thHuULEEezZsS5c3rLKj4CQKCgCAgCLgZAbd95xEW7pwZEDOOu19/FyfTsNYfTMTzrdeFgViBkWdBQBAQBO4j4OfrfrkgydRWkDjikjYc9QTEQVwhQUAQEAQEgaRDIOmYB6uqHJKXF3nmzaP+ie8dEdRcVtq1e6/Vyenzpk1baPuOXQ+E+e23KQ+4WR0uXbpMc+cutHMeP34S3b59287NfLhz5456RL7btu0wvRzeHz16nN5/vw9t375L5RVXvOAjR+3yj089sKUvIiIOCdFSurjKYQmuHuPC5ty5EJo+/V9HUeN0s6atcbZGnDTpD7p27Rrpq9X/YZ8fJr2IiAiKirL/kEuX29X0YsMuPm2r83zYupvxdu3cQ/F5B/HehF4OtUWNrfy2AHyDPrpv3wHldPLkaQoNvaLukV98+mNc9bSmcfHiRZo3f5FZBIf38cHYYcRU4phkzMOR1OFVsQKlGTmMfF7uRd6dOpDf8EHkVaHcA1A7ijvul4kPhHPmcCX0Kl2/ev2BIHXq1HrAzeqQPn16KleujJ3ziROnnH7ZOWL4Fyo88r127YZdXEcPa9asp06MQdmypVVeccVbsGAJhZy/YEsqPvU4wgxn+j+uDdpxlcNWAOMmLmzCwsLo3LnzRoz431rT1jhbUzh9+gy3TyTpq9X/YZ8fJr1Zs+ZRUNARuyx1uV1NLzbs4tO2Ok+7gjzkQ778eSlfntxxxsZ7kzZdWlu42MpvC8A3Xl6e9N33PyunyTwJWLx4mWK+U6dOo/j0x7jqaU0D73fZMqXNIji8jw/GDiOmEkf3K8biCZRn+bLkVb8uTlAkCguniMl/EPn6kO9Lz9O98HC6u/9BaSO2pDFTGTVqDF29epUKFS5Er77Si7Zs2U5TpvxJd+/eo3fffcMWFYMuThRr2YIX4pkmT/6TBg78mHp/PIAypEtPZ86do09HDKJ//pmlBrgihQtS3fq1aeGCxdSjZ3caMfxz8vD0pB0sIYC2cj7/zJxN6ICvvfoCpeMXZfmyVbSTZ2Z//DmdMmfMSDNmzKYFCxdTzZrVqHWrFvTll99TJJe5SpWK1LxFE55pRdCK5avpwMEgKlAwn8qrQIH8Kn34WcMrD8uPrseA/sNo0OBP1MwejGjTpq22egQfO0FBnEf+fPmodu3qdPz4SVq1ai117/4UYzBC4QDpJ0vmLBR6JZRxe8uWS0jIBRr56Wj13LrtY1SjelUaPfpbrkcENW3eiGrWqB4nNvv3H6Bp0/4hbx8fypc3jy1tzE4xkw3jdu/X70P64YdxFM594hiX7+WXe1KxYkUfSBuRTZyLFSls1w62xC03aGdPPg8olJl6sWJFFAbII2u2LPTVV2MpbUAgdXzicSpRopiKaS3bPe5PX3/9I924cZ26dOlEFSuWf6DvmW1QrGhhmjd3EW3eso37x4uUnwdds9xI77vvfqGLFy/dr2sRh+2N2bKJ3c2bt+zw37hxq61tQ0ND7fD0YonezPPA/iDq0+c9Onv2PK1es46uXrlKNzi9CyEh9+tUzq4MFSuXp2+4zmnS+NFrr71ImTJl5P69m3x9/Sg8PIxWrFjDUvAtqlW7BrV7vDW/P6PJk89bat60Ea1bv5G6Pv0kHTp8xK78zvq1J79fgQH+nDaPC9y/9u07SNWqnaLi3A9A5vvUvl0b+v67n/ndv0Y5cmanQgUL2N69p7o8ocJPmTKN3XaRj68v9f3kA+X2198zaBGrw8HcmjVrRPNZ8nj++e529W7UuL56vnMnjPOvTHv27lcY58ubl1atXGOrY6XKFVSaZjmQVr9+Q1Vfe7rrkzR79ny7d15FSGE/SSZ5WHHy6dRRMYuoTZspYsIk8n37dfJ56kmi8AhSftYITp63bt3OG7Jy80s8lM6zSuTM2XM0btxEGjFiIL37zus0lTsPaAerrdau3WBjHHADwwFdv36DPur9DtWuVZ0O8gCLWUYFZnBt+WW4G3WPB4ubhHwKFymoBriKlcqreD/9PIFatmxKWbJkpi2btym3uvVqUfESRUh33scea0bDhvanlfySbd26g9AZ0THnM0MC+fBgWqduTXq2+9PM1zxVXsqDfxyF137mVdfjCr9EoFu3bivx36xHk0b1qXGThopxIEwUz8xv3LyJWxsOYYz/xzywPPlkR1qxcrXyw890ZqbduXyffT6MJk38nQIDA+iFF56lChXK0hx+MeKDzSRm1EMZh1dfecGWLm6aN29CzZo3pkuXL1Nw8FHVFk893UkNphs2bHaYNuKZODtqB4SxEtp5yJB+LOGVoqaMxSs80Vi3fhMz21k8+yylGDwYhiZr2Tw8Pej111+iwYP70d88ADnqe2YbeHp5q7Z97tluinEgXbPcSA84goFF1/XB/oE4Vuys+Jttay2zNU8MhOvWbeRBfzVVq1pZ4f08T4xi6mRfBjCXiMgI1f5gHCAwdwzuuGJSNHz4QNW/MdgfO35CMQ4MqsD7Hv9Zyx9Xvy7JOy3X8LtaqFABld/BoEMEN5D5PuG5+7NPqzIsWrjUDlv4gclu2LhZjQ2Y8KxcuRbO1LF9W1VmTK4w+UQ4a5m2b99JuXLnVO873nGNcbVqlezqqBLkH7MccDtz+ix90vcDusL4Wd95HSclXZMF8/AIDCSPDOnpLg8UEf/OobunTlNY/yEUMel3Cv9xHN3jmRP5p4k3rtAne3v7qPA+Pt6Kw9+9e5fFX281y0WHBh09dpzCwu6omZZyMH58eQDHjCfA359nwBGqw2BQHzBgqC0UZnD4NwkSRLrAtIrpVKhYVnkhHeSvKU2aNLZ4OMQMM7j06dPRSyxlxUUuh4+KXtPQdcZM3lYPHqjuGeWCBICZIyj8Pkbe9+uHgQFShSbUE+FRN9B+Xof68cdfqUbN6vxihKv6xYWNp4enKouSNnXCfB04aDiXI0Ixa7xkID8/X/JHW7CKyxHuCGPi7KgdEMZKaGekh7T9A9JQAGa4PAAivj/fY/baqVN7WzRHZfPy8lAqMcRx1PciLW0ASefevZj+YJYbGZl1ja29rdhZ8ecprq1tHZXZzLMJM01InEGHDtskLLNO1jJA8nvrzZfpx5/G0549+23Y6Buzf/vy7P5znmBgfXHq1L90EC6efdtb87AFvH9TqnRJJT1jkla6dAk1cy9evLDyNfNDf/nww36UO08uypYjm/I3370obgtfb2/l7s1jg1578rrvdo1V2Tq8tUyQhO366n2MHdXRWg6kmT5DOpbOfJV625V3/j4Eye6SLJgHtxbd5dlJJOvffVj098iejf+zkzfPQO9dusQSia99ozmA8YaaQY7iWeQoypM3F+3atVuJiRjgoBp4mmeuH37Yl4aP+Jy6PBUtvnbg2cYrL/eib7/7yZYiXmyQvuIeC2OfsopmNy/QZcuaFU6KMMvGbOSTvoNtL9Fzz3XlRdnf1SK3HrAxOOFlxWKolapWrcgqk1AVfs/efTZv5O/JnVNTpsyZaC/7xxZehbtfdh0H1yKsths27DPazFIQvM16QKRftWodYcYJysMv3L69B1kl9AXrkqMXJZV6atSXNJGlC6jUdDnatWvN6pWfFKYdO7RlJhugFjL/ZNWcn5+PkkDiwuZxVnf16TOQvvzqe5W//smYIQNt3LBJzfy0m+3KlXCEO/xNnK3tkDVrFtrP6hl91emZ7azdcG3fvg0tXbqSFi5aymq+czYvR2X78Ydf6aOP+qt+BdWjte+ZbYA2LcPqwwkTJtMhHqxBZrltGeGG6xpbe1uxs+Jvtq2jMpt5YiBDGK0G0qo4XSdrGdaz9Ddlyl90h6VZqGWdEfrPF198Q6d4oTtbtph3x1p+ax7HWaWKfqupRPEitH3bTsXcKjEDOcb+WY13UYfDZBFMAWrhs2fOP4At1MlFihZR7+ziRcuoHmsFQLNnzVWqajxjcgWylqla1SpKW4H3Axs8NMb/8oTXWkdrOZCe7mvWdOGXEinJvvO49260rlGD5vve20pdpZiFduQrGIlPt6cofMw3hiu7j47pWHYexgN2WWBWogmDuTfPMHDm/cMQZhN40ayEWTlmFJowm8FMQ3dCuOMZ4czy6PC4xpa2fZiY+sQV/p13etOYMZ+q6BDD0Zk1mXFtM6/7EgbKCWaJwQWEdEaOHKxwAwMEmbiadbfmg7CmP56t2DiK4yge3KxkTRv+Js7WvHR4fbWm5+jZrKv2t8YHXpil2mMc01aIZ62nNV2z3Dof82q2mXa3pml9NtvWWmakofNEP8WkAnr5XLlyqvtevZ6jjBnT2/VhswxID31E9xNdJkdX4IN3z3xHEM5aXriZeSCO+Q7BPz6E/FA3XTZdT/Pdc4SHbhOs/c2ds4Bee/1FlZ1ZJjjocLjXGOPdsNbRWg6EN8marun3qPep+jsPKziRs+eQL0sBHjmy27w8ePeGLy8qRvIC9MOQ2VkQHx3xYRkH4jtiHHC3vhTotNZOj85lLQ/iaootbe2PqxnfWXhsX+3YsZ0tqjmoRacTwwCtAwDKqV86hMXCN+qnGUd0/BiGbNbdmg/Cmv54tmLjKI6jeHCzkjVt+Js4W/PS4fXVmp6jZxNz7W+NrwzwGMwZ4azxrPW0+pvl1vmYV0ftbU3T+my2rbXMSFvniVl0nTo1FeOAOxaNob6z9mGzDEjP7CeIFxsBH0f5W8uL+GYe1vxjS9/qjvzMsul6muEclQdtAqaCNdGWvC6pySwT3My20xg7qqO1HDo9fbWmq91TyjXZSB4AzLN4UfJu04o8AgLQs+ke78uPZHHybvDRB/CMj+TxQCRxEAQEAUHgP4BAYkgeMbqMRAZUnVVlOc/qbtBhCh/9NXnwdlbWA9C9G46/h1BxE7m8kp0gIAgIAoJADAJJtmCOQw5jo3tXrsTKOBDHWdzY0hR3QUAQEAQEgYRDIOmYR/OmBAnCVVJSB8cVEgQEAUFAEEg6BJJszUNVWY5kT7qWl5wFAUEg1SKQGGseScs8ErDp9PY5HFq4eMly29fcrmSBNObx18QZ+ZuKxvz1Nejw4WC1CwVf8OIIhgp81lbIhQvqy+/f+Wydt/73aqxZYOsednqYOz904K/56AtHcXU9dDjrNS5/a/iEesYBdmvXrqcnnojZxZVQaVvT0XVEW+Ir69atW1iDPPCMbZHW7bLWQGa6D9NHcCQItnpXrlzRmnS8noHh8uUrVR8qzR+9CQkC7kIgMZhHkqmtEho0ffgZ9o6f5WMAHoZOnTrDx4gUp00btyimgTTAMHCMyZkzZ/hspz5qXzeOPbjADARfqDsjRwfg6fBHgo/pW7urroedo/EQl78RNEFv43OAXUJlqOvo6ADK2PKIzyF1Ot2H7SPWA/RiK0ts7ugvNfkL/LF8Vpf+PiC2sOIuCCR3BLwGMrmjkFFRMccvuCN9M01IB+N/nazOscKM7reJU2kvH5uA83rq1atNv//+N83gs5gO8he9+AIYB5St5K+q8UHUrxxvFZ9vc5u/lq1WvQpl548SlyxZQXXr1uLzmgJVNnv27KXrfJZVBO8BxwGF+Cq7LX8djf3xBw4E0Z98uF8DPtQRp31O//tf9WVy1aqV1OFxh44coeLFi1EGPn7l/PnzhEPytm3dqQ4nxFfaODwN+R06dESdEPrvv/N4mzK+LvekX37+jb+UXUIleAszBlKznjhYDvvNcYbW0KGfqeMufvrpV857BYWEXOS9+qXt6p0vfx7++GsMreeD6bCP35+Pe8H5PSNHjqFlHAdf5cKtP2OzccMWG3aYbY8Z8y1t4y/pM3AZqjNGIHxdvpwxnDljFh+Ml4kPmfPmo1uG0erV6/kr4KI0aOBwApPF4XOBaQPoQ/4CG4dGArv69WszBjvUSak4sBJnhv3yywQ+Z2gNHTt6ghYyjjiTrEjRgjSfJUGc2Dp8xBe0icuF9lE4jJtEO3bt4u9QqqnyoP23bN7KeGRVR21Mnvw7n8W1Rh0Tg+8FTOzi6iNejP16/sK9VKkS6rDBihXLqW8ewKBm8bldK1etUWeA5cuX1w4/HGaZNm2gauuhfNJBqTIl7MqNdHz5sE980f/YY81VueVHEHAHAt58ErG7yf05uLsGnH5RPqm0aJHC6rRcqIhwnHL/Ab3VSbA4+38RHzGBozWC+XsRnNXv7IAyMBIcf4FBClS4cEE+8+eIYkbdunZRkgjOf8LAHcCqrA8/fNt2eKJ5AN1ZPowRhxuaB+D9M2MOPdfzGXXQoD6W2jw8zTwgr2TJ4tTpyXZqYMZxECCzno0a1ldHMOzetVcN1jiPqUnjhvcPd9vCx75ft6v3MbYPYj3MznqYHg58xJEPGjt8MGU9wE4VhH9wwJ15eB7i4iiYIUP6qgG2u3FoIvwKMtPt3783M+wczHAPkfXgQqTXgY856fZMZ1tb6kMhrYcU4thynFvU49luujikD6lD2zk6+M7ELq4+kit3DsWAoObCIYA490qTeQifFT+cTLx82UrVR0qXwVlMDx6uCNMBOEhRSBBI6QikCuZhbQT95aZ/GhzjHKYOYcPBgzilNm3atE4PKMNBeE356GhNYBJQMeC/DJ+8uoWP0sYAC7Ienmg9gA5n2ZgH4GHQ0gcNIj6OJ4jtELe//57J+v4tVKNGFXWGEMKblC9fHiVhLGGpoVGjBsrLPNwtMjLcrt7leXZvPczugcP0OBUTO7VmYznAziyDeXge3HNki2a41kMT4afrDfUXmJijgwszZ+bvexyQ9ZBCrLvUq1tbSTPAUNH9Q+piO/jOmqxZT2sfycDnPGFd47ffplLDhvXsoqI/6DUsK344MBCnveJI8ka8ZmYtNxLCl9xgZEKCQEpHINUwD8w4odO2WvMDs6havTL9/ddMdcgdjiVwdkDZEl5sP2ZZy8jOg2Ke3LnUoIEjB7RtB52O7gTWA+isB+A1Y6b0888T1AFsOGkVxzPEdoibUlOxxLNk0XKdvLrqeuKI9RbNmij7E9myZVF+OJQQ9ilwuFtmtsFh1nsbHypnPczOepieXUb3H6wH2Okw1sPztDuu1kMT4bZ23SZ10N1JPjG5DKsWn3vuwQMkEQ6k66jb0npI4WS29YKFZxyhAUNBIH1IHerp6OA7hLGmCzeQoz7SqtX/2zsP+CiqtY0/6Y3eCVXpxVBCb6KoiIIiHyCKqNcGcqVJLypEEWxcQLgq4FUpAhakqFRRugIJHUKX3lsCpJPvvCfMurvswiZkJ8nmOfyyOzOn/8/yPqfMnHlEvW/iJ/1OirRQt3464hceXldPT8p0on25JQXZiVZGdHQkkNMJeMzdVtIQYlDFoDhyMgWhhUPNZ9s76w3KMroZm5GmGAbrfXOMO3wMf2Oh1Oi92m+eZr2Jm31aRhpGPRfM/xnBao5dREnWF/wDAtSCbD2bvXes6y3pSb5G3pKeo83pjHyMb0dhZCM9R5vnGXHk2yi/3GUkd6a93vMVm7IJC6mvoz2MjDpap2fN0rrNjDDWbI28DT/j21G6hp81K3mtr7yzZODAPoa3w29HbOwDWpfblfD28XlOAuklYMbdVul/Si+9tTAxvDPhkCLIdIMzZ0xhiL8jQ+YsnqPr1sIh/vb5Whtu8bffPM16Ezf7tCS8OKmn3MIaq7ZveUItuosLVZtIStr2+VmfO0rP0eZ0OkGrD0dhnG2eZxXNIqJS3ho1qt1SNnshs47rqC2t62LdZkY8a7aO6irhHKVrxDfSl5eH/ax2Ve3e/SXDy+m3Izb2gY105bor4e3j85wEsiMBjxp5ZEfALBMJkAAJmE3AjJHHrXM4ZteS+ZEACZAACeQ4AhSPHNdkLDAJkAAJZD0BikfWtwFLQAIkQAI5jgDFI8c1GQtMAiRAAllPgOKR9W3AEpAACZBAjiPgNvGQW1DpSIAESIAEzCVglu11n3iYy4u5kQAJkAAJKAJmddvdJh6+vj76ATi2JgmQAAmQgDkEZNQhttcM57aHBKXw6v08+gU96ksdyycdCZAACZBAZhMQ0ZARR1qnPbNTd5yeW8XDcZa8SgIkQAIkkNMJuG3aKqeDYflJgARIgAScE6B4OGdDHxIgARIgAScEKB5OwPAyCZAACZCAcwIUD+ds6EMCJEACJOCEAMXDCRheJgESIAEScE6A4uGcDX1IgARIgAScEKB4OAHDyyRAAiRAAs4JUDycs6EPCZAACZCAEwIUDydgeJkESIAESMA5AYqHczb0IQESIAEScEKA4uEEDC+TAAmQAAk4J0DxcM6GPiRAAiRAAk4IUDycgOFlEiABEiAB5wQoHs7Z0IcESIAESMAJAYqHEzC8TAIkQAIk4JyAr3Mv9/ukxh5AypG5uHExCriRePsMvf3hXagufMo9Da+8FR2GjY9PwPnzF3Dt2nXcuHHDYRheJAESIAFPI+Dt7Y2QkGAUKVIYgYEBplQvy14GJcKRtGXwnUXDHoMSEb86H9wiICIcR44cQ7FiRZAvXz74+HBQZY+O5yRAAp5JICXlBmJiYnD27HmUK1fGFAHJMgsrI447jjYctbMaoei4dn4y4hDhKFiwAIXDjg1PSYAEPJuAdJbF9okNFFtohssy8dBTVU5q6BVSDl4hZZ34Ks2RaS47J1NVMuKgIwESIIHcSkBsoNhCM1zWrXk4WePwCiwGv/qTVN1TkbThX0hNcKCiDuLKGgenqsz4yTAPEiCB7EpAbKBZ671ZJx529L2Cy8AvfBzgE3jTxwt+jb8GUuKRFNkXqddP2MXgKQmQAAmQQFYRyB7i4eUN72LNkHLsJ6T8/a0NC5/yzyq/5mnrHKmpNn48IQESIAESyBoCWbbmYV1dn9JPQkRCnM89XSGjEPnzKd817Zr69gl9XB/zgwRIgARIIOsJZAvxsMaQGrMXqYmX0v5ioq28vKyOeUgCJEACJJCVBLKFeKQcX2CZrvLKWwl+NYfrP698lTWblMOzkHLyZ7dyOnTob/y2cvVt89iyZftt/Z15ygLW1q07nHnfcv3AgUO4evWazXVJIzJyKw4cPISjR4/re7qlzHdy8fHxOHfu/J2COfSXfAwneSUlJRmnd/w+c/YcEhNtH/w8fvwkrl83506Q2xVQ7oV3xbkazpW0GIYEPI1AthAPpN5QC+LHNNuUv2cjaetQ/SfH4lKvKyPmxvWOY8dOoOe/ByCPekLzdm748Hdv5+3ULyUlBRERHzr1t/eYOes7LRDW1zdt3oIv/zcT165ex759B7B//yH8+ONC6yAOj//8K/IWIXIYUF3cvXsv9uzZZ/Fetvx3y/Gvi5cjNvaq5VwO7MNbe/7y81L4+touqa1d9ydOnT5rHcyl4xkz5uI/4z/DkqW/uRT+ToE2K5au3JEi4VLd+Lu7UznpnzsJXL8eB+uO4UHVcZNr2c3Z/u/OwtKlXomGd/FW8Ks9xqYUqSlxuHFqic21zDwR4ejeox9GjRyChg3rOUx6zJhx2PDnZkhvWty4cZOxeMkKvPLK80hSvety5crqkUW16lXw999HUS+8tg4Tp3r99evVQb9+PXU86XW/2X8ETp48jXcjhuHS5SuYPHmqfiL044/exaJFS/DZZ18iVo06Ond6SscxPr75ZrYSjIO4cPEi9quRSYP6dbXXwYOHMXzEeyhUqCA+GPsOhg6LwKcTP4SXV9o0n4xiWt7fFG/0GqgMZipCQ0vokUjTJg1Rt24tfP7FVxBxe65rZ8xf8AuuXI7B8OH9ddjSpUO1wf799zXYv+8gnunyfxAWIiLdunXB7Dk/6PDdu/8Lc+fOQ6Iambw1YoDaJiEEN5TRlf8An06aAj8/P7R/Mm3NasqUr9V96NcQMWqYrsdiJUr58+dHrzde1QLrrW417Nvndc1P4r3++ksqr6f1g09S1kdbtzKQ6G9pi9Onz+hjP3+1+4CfL0a+MwQTJ34BqfvDDz+AokULI0WN3OrUvg/TlRBdV/fBP/BAc10XI4958xbhzJlz6NKlAypVqqDTi47eh0ceecCmXO+N/hgymuv1xmvq1nAfG37hqt3pSOBuCew/cBBDh0ZgyhfjdeelT5/BeH/02wgLq3G3SWdq/KwbeahtRqxdasJ5JO8YZRl1GKOP5B0R6lmPi9ZBAbu4tp63P1uzZgMmKYMtTqZRunfvqwzeQKfCcerUGWzbvgs/zZuhDbQYfpmCWrRwNqZNm47y5cth+45d2LtvP6LUtFJU1DZ1rYw2drNmTsHyFX/ovOTjjz/WoUb1qspovY3/fTUTdeuEof+b/8buXdGQfEQ4Zsz4Ai1aNLHEMQ7atW2N557rjPzqIaCrViOAb7/9AQ891BLBwUF6NNKpU3uLcEjv2vumiIhBnzzpI5xVBnL8f8Zgx87dWjTq1qmFYUPfxJ9/bcb9LZqiq8qjePFi+GvjZi1QK39bhbFj3sEDDzbX6fbs+QrCatXE2rUbLOFr1KiKV199ASHBwYiO3o/Dh4+gYsV7dfoiUh9+MArLlq3UVXnxhWe1kMjoSYS14/89iR2K32UlpFfU9gqv93gJkYph2bKlcV9YdWzYsEmzfPPN4WjUqL6Bw/It8d577y14qb19RgwfoIXq1KnTuB4XpwTkA6z8fbX+T7d+/UZs3rwVYffVQExsLNZv2GiTh/TuOnRoaxEOyUDCSY/PKNdm1b4iXvIfee5cdWegEl1rfpZC8YAE7oJArbCa2ib16j1Id/qGDxuQ7YRDqpdl4iGbHGbU3U3cZs0aaUMtPdaePftjhBKOxo1vNUpG2WTaIl++vLqX6aemYWTeP1hNbwUGpj2PUrVqZWzaFIVSpUJx4uQpPc8vhlr8/aUnbDV1k5iUqDcvy6P8ExIS8c302RCDVFbtRSO9cV/V086TJwQ+yhC66uITElRaCbqHXaZMKYTX/af3u3fvAdSoWU0nFRQUqI1/ocIF9bf0msUFBPojKCgIiao81u78uQtaLGXqSUYx8ifrMBERH6DCveVV7zvBElzEdM6cH1GlSkXExcVrHvXrpZXDxzctHzHm4vwDVH5K6BLUiE1GUwcPHUZ5NXILCAjAgP698OGHE3BOrUkI95IlS6BueC1djunTP8cKKyE2MpeRir+/nxYuqWOQ4i55Bas6iRPxDFailpycjC1bt6PezXIlqPJb5yHCs3TpSqxavc5IWn9L2xvlEiZSTskvKTlt/ccZP5tEeEIC6SQgNmnggN4YPKjvbe1TOpPN1OCuW6lMzVbdkqt2x83QCEKNOnTcDJZHjKBMGR05ekxPzzRp0uC2Kck0jxilrs+9pgxGMsRAi4Hv8szLaNf2UbWLZSFtSO+7r7oWmWrV0hb5rRM15v6lNy7rCAMGvoWnOz+lw29Xo5qjakNHcdLzfa5bdzVFtsk6usPjokWLYKMSrQ4d2kFGU8vUeoCvMtRtHutkCR8ZtRW11Sjhdk7JghKGtBDly5fFgvm/4NDhv7WBl6s1a1bH6Pc/wapV67SAynSUjFLEGeFlKu2ampKLunlDQUxMrJ66kjBikEeOHKvFTc6t75nzU0ZYpg1leunU6dP4Qa3hyNRT/fq11UjugB7hJSUmqZHFx/j00ykoFVpSkrBx3uoZIXtXQo2cLl66pMst5RcnvbmYK7Fa0CVOo0b1bPKYOvUbLWgBKn9Zn5JRhTjpEFiXa95Pi7R/W9X24qz56Qv8IIFMIiC26U72KZOyylAyWbarrpQ2M7dkl4VeR4Y7Q1QcRJKeqyEC4p2ojJr0QF11El+2TRbxEsNkpCUjGZl3N5yRz7btO7F69Xp9WUYw3V970Qhi+ZYRh/SEDUMnowk5NkYVMq0m6zLpcVIvGUmJKFapUklHNcokJ5K+UQ85l/CyziBhpB4iHEuVkMn02d69+7Fz1x4lsm2csrKuv3U90tJO1Mbe+njt2j9x/MRJuaTFpHnzxvrY0Yd12o785ZrcESZ8ZRSSlJSsyynlSEm5gVFqlDX6vRE2fCWc+Bvt5yxdXieBrCLgblto1CtLxcMoRGZ8mwUsM8pqVhqyQC9TNul1Ms9vTHOlN66IiKy1iEGW9YgLFy/paa70ppPV4WUqThbZw9VNBXQkkJMImGULs83dVjmpcXJKWTMiHFI3WXzPqLPukRcokB/ylxNdbXVnFh0JkIBzArdOGDsPSx8SIAESIAES0AQoHvwhkAAJkAAJpJsAxSPdyBiBBEiABEjAY8RD7gCSO2ToSIAESCC3EhAbKLbQDGdOLibUJEQ9uCcvgKcjARIggdxKQGyg2EIznMeIR5EihSG7oF66dJkjEDN+OcyDBEgg2xCQEYfYPrGBYgvNcB7znIfAki0zzp+/oF8A78quqWYAZh4kQAIk4G4CMlUlIw4RjsDAAHdnp9P3KPEwhRgzIQESIAESyLqNEcmeBEiABEgg5xLwmDWPnNsELDkJkAAJ5DwCFI+c12YsMQmQAAlkOQGKR5Y3AQtAAiRAAjmPAMUj57UZS0wCJEACWU6A4pHlTcACkAAJkEDOI0DxyHltxhKTAAmQQJYT8Kj3efAhwSz/PbEAJEACWUCADwneBXQRjiPqXeDFihVR7wbPp17FykHVXeBkVBIggRxEQLYnkX2tZHuScuXKmPKUucc8YX78+En9eH7BggVyUJOzqCRAAiSQeQRkf6tr166jdOnQzEvUSUoe0z0XYDLioCMBEiCB3EpAbKDYQjOcx4iHbITIqSozfjLMgwRIILsSEBto1qawHiMe2bUxWS4SIAES8EQCFA9PbFXWiQRIgATcTIDi4WbATJ4ESIAEPJEAxcMTW5V1IgESIAE3E6B43AR86NDf+G3l6gzjlkWqrVt3ZDh+ZkaUe70z212+fAWJiUmZnSzTIwESyKEEKB6q4Y4dO4Ge/x6APE5eHN+8xWPo03cI3ug1ELGxV22aetv2nViy9Df13vQURER8aOOXnpNBg97Ga9374vnne2DHjt347ruf0KFDN51nZORWGP4vvfwGoqP36fPDh4/ckoWIWGTklluup/dCQkICFi5cbIl2UImrCAgdCZCAewlcvx4H6cwaTv7vybXs5jxqe5KMwBXh6N6jH0aNHIKGDes5TCJvnhBMGD8WI0eNxYKFvyJONWTXrp0wfMR7uHIlRotPgfz5cE69P71T5xdRv14dZdz7YNy4yVi8ZAVeeeV5VK1aCZ999j8cVU/B9+r1Gtq0edgmrxupqRgyuC9279mL9Rs2omCB/HjqqbZ4/PFHUEAdz57zo/bftSsaa9ZsgIRPVX/i9u7dj2XLftfpyjYFe/bsQ6VKFTBx4he4HheHyur46LHjePXVFyCCExW5Td0Lfg39+v0bSUlJ+GTcJAT4+2PkyKH46qtZOHP2HKpUqYBff12BkiWLo379ujihHsIsXKggpkz5GmfOnEOXLh10Wj//vBRlypTCgAG90KfPEAQrAa5Zsxqe69rZpn48IQEScI3A/gMHMXRoBKZ8MV7/H+/TZzDeH/02wsJquJaASaFy3chDDO+kyVM1Xnkqvbvq7b81YqBT4ZCAsVev6Z6+GO7HlNH/Y9U6REVtR9h9NfBU+7Z44YVnEB5eGyIys2ZOwfIVf+DkydN6GmvRwtmYNm06EhMSUbRoYYxXIiTxHblhw9/FhAmfo+X9TbX39z8sgFyLj4/X5xMmfo6pKq0mTRvaRC9ZsgSaN29suRYTG6tHQg0a1MVgJWJ58+bBsKH9sfGvSJVWArp1exo9eryE1avX4/vv5+OdtwcroWqHVavX4eSp0ypsP7R59GG0bNlMC4ckLGVITk6G9II6dGirxUmEceLEDxAQEIATJ05p4Rg75h0tZpbC8IAESCBdBGqF1dQ2qVfvQXrmYfiwAdlOOKRCuW7k0axZIz3NJKOCP/5YixFKOBo3rn/bxg0MDEDv3j10L9zHxwc1a1TFnLk/ol/fntijppDEIIsLDAyEv+rB+/n66h699MLlmjiZTsqXN6/aQiXIIgbaw+pj6JB+eOvt91GiRHFs27YTLypR6tChnSVEp47tUa9ebUuahoeIQ+XKFYxTy3dQcBCC1Z/xnZCYiLzK11vVIVmNOEQQEtW3GP+goEA14jir98QJCQnRw2RjZGNJUB2MGD4AU6d+g/MXLsLby0t7SVxJWziJE0Z0JEACGScgNmnggN46gTvZp4zncncxc93Iw0sZvHcjhuHI0WMYPrw/mjRpcEeCIgayV4xhFFu3boWjR0+gQoV7UK1qZcydO0+tM2y1SUemcvKokUiXZ15Gu7aPwlelcScnIiDTYTNmztVBZcQiaxzGQn5oaAkb4ZBRifhv2LAJEe9+dEvyXkgz7vYeM2bMweTJ09Cq1f1o+3hrjH7/E8yc9R2aN2uiBCHtJ1FITVHt2b1XjbC2WaKLAIpwiFDINFd4eB28N/pjPSVWXm3GRkcCJJB5BMQ2uWKfMi/H9KXkMRsjyjx/tWqV01f7DISOi4vHtC+nq/n/Qnj22Y46BVk3EGGR9QZ7J3co+fv72V9W6wnL1RTQYX393nvL4/HHHrklTHouyIK9IW63izdHCV143VqQPI3wEldE1b78Mk0l18XJdFm7do8iVE2RJSUlW+okdffzu7V+tysD/UiABNxHwCxbeOfusPvqmCNTTkpKVMa3tlojCbeU/3bG05FwSMTHHrNdMLcklsEDQwjuFF2Eo3jxYhbhkPDO4hqjpdOnz+hF8VKhJXXy1nW6Xd3vVBb6kwAJ5FwCHHnk3LZjyUmABEjgFgJmjTxunWe5pSi8QAIkQAIkQAK2BCgetjx4RgIkQAIk4AIBiocLkBiEBEiABEjAloDHiIfcKSTv8aUjARIggdxKQGyg/V2T7mLhMeIRoh7IkxfA05EACZBAbiUgNlBsoRnOY8SjSJHCkN1k5QXwHIGY8dNhHiRAAtmFgNg8sX1iA8UWmuE85lZdgSXbhJxXmxPKC+DlaWg6EiABEsgNBGSqSkYcIhzGNkHurrdHiYe7YTF9EiABEiCBNAIeM23FBiUBEiABEjCPAMXDPNbMiQRIgAQ8hgDFw2OakhUhARIgAfMIUDzMY82cSIAESMBjCFA8PKYpWRESIAESMI8AxcM81syJBEiABDyGAMXDY5qSFSEBEiAB8wh41Mug+JCgeT8c5kQCJJB9CPAhwbtoCxGOI0eOoVixIsiXL596Ox4HVXeBk1FJgARyEAHZnkT2tZLtScqVK2PKU+Ye84T58eMn9eP5BQsWyEFNzqKSAAmQQOYRkP2tZHum0qVDMy9RJyl5TPdcgMmIg44ESIAEcisBsYFiC81wHiMeshEip6rM+MkwDxIggexKQGygWZvCeox4ZNfGZLlIgARIwBMJUDw8sVVZJxIgARJwMwGKh5sBM3kSIAES8EQCFA9PbFXWiQRIgATcTIDicRPwoUN/47eVqzOMWxaptm7dkeH47o4o939bu71791ufZsrxvn0HcfnyFSQkJOj0zpw9h8TExAylffTocUu89JbVOq6RiNzKff26OXehGHk6+rZvB0dh5Jqr4Yz4p0+fsdznb1y703dycjLWrv1Tx7MPe/HiJZw7Z/ubsQ/jynl66+FKmgyTPQhQPFQ7HDt2Aj3/PQB5nLw4vnmLx9Cn7xC80WsgYmOv2rTctu07sWTpb+q96SmIiPjQxi89J4MGvY3XuvfF88/3wI4du/Hddz+hQ4duOs/IyK0w/F96+Q1ER+/T54cPH3EpCxG2yMgt2qgvXLhYx5k950eX4roaKCpqGy5dvozly3/HiROndLRffl4KX1/XNjFYsPBXJTRJOp4Yrqgt2yxZfzv71rJah7cEvHmwTJXB3q1d9ydOnT5rf/mO5zNmzMV/xn+m2/iOge8QwGiHOwTTvyXr+t8pvPhP+3IGgoKCMO+nRa4E12E2b96CAwcOITg4+JY40dH79e/Q3kN+l646+T+R3nq4mrYnh7t+PQ7SmTXcQXUs17Kbc+1/dnYrdSaWR4Sje49+GDVyCBo2rOcw5bx5QjBh/FiMHDUWYrTiVEN27doJw0e8hytXYrT4FMifD+fU+9M7dX4R9evVUca9D8aNm4zFS1bglVeeR9WqlfDZZ//DUfUUfK9er6FNm4dt8rqRmoohg/ti9569WL9hIwoWyI+nnmqLxx9/BAXUsRh78d+1Kxpr1myAhE9Vf+KkZ75s2e86XRGzc+cuQHnqH1zxEsXgo95vvGfPPiSoUcCcOfNQsmRxJCYk4t13P0K8GiWMfm+ETkfE6JNxkxDg74+RI4fi8y++wtWr1yA9VOEzdeo3kNHEE+3a4Oix49ixfbc6P4uIUcOUOG3Fyy930wJctGgRnZ6UUf4TTJz4Ba7HxaFypQo63quvvgDJy4g/aGAffPP1bOzevRdDh/TDxk1RaNignjbal5SQHD9xUvfEJ02agsSkJPTr+7ol/IMPtsDixcuRP39+ff3UqTP6Aan5C35BVOQ2dc/7NfTr929dnilTvtbnUt6lSvD37juAunVqoVatmsr4TlfxSuH5bl0wZsw4+Pn54fXXX0K3bk/jvGpXYfFo61Y6HeNDOhM3bqQiNLSE7qU3bdIQnTs/pesrRvnhhx+AjAg6dnxSc4iLi9ft0LJlc5s85s1bhDNnzqFLlw6opBj5+Phgt2rnalUr25TrrbdHIz4+Hr3eeA17VAfC4Cf1efCBFrrMRtnk+6+NkRY2vd54VXduvNWtnMI4ICBA/2YuXLyIQoUKolq1yjpvMVQTJ36uOhqJ6NypvU0aUv+Zs76HbIWRpNrB4PfEE23w999HIfUQJw+oCQejHvbcdCB+OCWw/8BBDB0agSlfjNf/x/v0GYz3R7+NsLAaTuNkhUeuG3mI4Z00eapmLVMZ3VVv/60RA50KhwSMVQZUev5iuB9TRv+PVesQFbUdYffVwFPt2+KFF55BeHhtiMjMmjkFy1f8gZMnT+tprEULZ2PatOnaRTh08AAAFcpJREFUWBctWhjjlQhJfEdu2PB3MWHC52h5f1Pt/f0PCyDXxGCIm6D+U09VaTVp2lCfGx8lS5ZA8+aN9Wmlivdi27Yd2jgfOXoM29RUmhikmNhYiHFr2bIZ6tevq0cEw4a9ifz58lqmc77/fj7eeXuwEq12WLV6HWJjYtX5INRSP9rNm7dCDEs7JRxLl61UZUrQRrH9k49jnzLCIkxiVGrUqIa8efPo/Cuqskjvs0GDuhisxFSuDxvaHxv/irSJf/LkKTRoGK6Nv1RC2sXf30+LVkTEMJQuFaq3nRHRCVG9ZPE3wotQd/y/J1UveZceWf21cTMaqPpJ+cTw9+jxElavXq/ZvPjCszDK26FDOzzUqiV+/2ONNtwFCxRAt+ee1sJdtmxp3BdWHRs2bNLC8eabw9GoUX2dhvVHSEgIJk/6CGeV4R//nzHYsXO3Di9COXHiB1j5+2rUqROmxXD9+o36P7+0g3QOrPMQrh06tNXtZKQv4URQjHKtW/+XFi8xInPn/mTDT/g3adJAR/VXomf8XqzZyHTiFbV9xeuKhwiHOInzXNfO+rtMmVL62rwfF+rfgLATZ53GvfeW0/URMbTmJ+GkPj17vqz/2rd/XC5pJ/WgSx+BWmE1tU3q1XuQnnkYPmxAthMOqVGuE49mzRpBeqcyKujZsz9GKOFo3PhWw2Dd3IGBAejduwfmzP5S99Jq1qiKOXN/RIsWTeDl7aX/I0v4wMBAZfT84aemaqRnFqymweSaOJmyyJc3r9pCJcjyn1t7WH1Ij1CmHkqUKK6vvqhE6fPPxlmmFTp1bI/v5v4PNapXtYoFbZQrV66gr8kUhIwqtFMDk9irV1Wv/J8n743RivRApWco+SUlJevg0qsXwxIUFKgNsYQRQZDxjaQjTkYhT900Dv4B/ggKDtLC4eXlpf2Nj01q9FC/Xm19KmGC1Z/xLUIjzjq+vqA+JH0/P1/d4wq8aeS8VBlkPWmOGn1VqVIR0oM33DffzFaidhjly5XV017n1ahLetLivFX9hLthTK3ze2fk2JvlCdbiJqI6dNgoJCjREUYiyHXDa+m0pk//HCtUh8DeCSepd6HCBfW38JS6BSum4ryVX+3a92H79l2qzHFqB4S8+rp9HiOGD1AjoZVasHWAmx8iuka5pE2lbURUk5LTpves62PES+Pnp0+t2UjcAf174cMPJ9yynlKkSGHL71TqLqMuL/VPnHUaMq2YqniKs+Yn5yLoX6u2kL9ff10ul+jugoDYpIEDeqtOV9872qe7yOauouY68ZD/7O+q3qz0yocP72/psd2OooiBDMXFOIhrrYbvR4+eQIUK9+iphblz5+lpG+s0pCeXR41EujzzMtq1fdSluX/pmct02IyZc3VSMmKRNQ5jIV+mRwwxkgAyKhF/6SFHqCkowxUqXEgbNNkgzTAC4idGdY+aGpL1CW+vm01vZfPbPt4ao9//RE1NfIfmzZpoI/3pp1Pw55+b0EyNdvKrrQ8k7gU1lSTOKqoadeXRU1zaQ33EqFGL9MzFWZdBX7j5YR1fpk3++98vtaEVgysGTfbpeW/0x6oHflaL9DW14B21ZbuObYT3VUIjU48yTSQL9SJQhpsxYw4mT56GVq3u15es85MOQZSaaruqRFEWjWXaLY+qQ6NG9fR0jIhVkjKW7733MYRBqdCSRrK3/Q5VonPx0iXNsWbN6rrdxeBWrlzREs8+D5kOFNHxVb8vmUo0nH25ZD1D1tXaqt+TOOv6GHGkA2D8Tv2U0BhsTp0+jR/UqMJPdW7sd2KQEaeso4lr9VBLfPTRRP0bkP8r1mmIv3SIFi1aon6H//CT6zLy6NH9X/rPeuQhfjJl+oMaRRv5SB1kREp3ewIyMjRGlLcPmUW+qqfhEU7Nl5tSD7VwlTrx0y9SZ8363pKfuqMoVf1nsJxbH6i5Y+tTy/EvvyzT6UhaP/+y1HI9oweqx+lSVDUiSr1dWPEz6vLOyDGpUjdrpwy09anlWE3Tpao5b32u1oFS1cKqxc/VA9U7T/3qq1k25ZPyGs6+LBJenHF93bq/UpUR1NfUGlGqms6xSUt73PxQIxIbP/t6WZ8bx2oaMVXSlT8jH+s0rY+NMllfsz820pWyGL8T4S/83n//Ex3cCCMnEs6ah3166kYDm9+l+FuXQ9J21Pb21+zzsE4jrawJuiz28ezLY10P67zvFM8+HZ6nj4BZttBjdtWV3o30Rt3tZNvjnTuj1RpJuKWH5+48syp9uRunnlpTcNUJG9mYTRkHPV0kU3jpdXI7raO7f1xJR+5IMaaS9u8/iOLFi1mmilyJn13CyJpS9WpVYKxDuFouZeQ1d+vRqatx3REuo/VwR1lyU5pm2UKKR276VbGuJEACHk/ALPHIdWseHv/LYQVJgARIwAQCFA8TIDMLEiABEvA0AhQPT2tR1ocESIAETCDgMeIhzyPIe3zpSIAESCC3EhAbKLbQDGdOLibUJETdfy53+9CRAAmQQG4lIDZQbKEZzmPEQx4qkx085cEyjkDM+OkwDxIggexCQGye2D6xgWILzXAec6uuwJL9jGQTO3kBvHqYyQx+zIMESIAEspyATFXJiCNtq5m0vcvcXSiPEg93w2L6JEACJEACaQQ8ZtqKDUoCJEACJGAeAYqHeayZEwmQAAl4DAGKh8c0JStCAiRAAuYRoHiYx5o5kQAJkIDHEKB4eExTsiIkQAIkYB4Biod5rJkTCZAACXgMAYqHxzQlK0ICJEAC5hHwNS8r9+fEhwTdz5g5kAAJZD8CfEjwLtpEhOPIkWMoVqyIfpud/Xua7yJpRiUBEiCBbE1AtieRfa1ke5Jy5crod8y7u8Ae84T58eMn9eP5BQsWcDczpk8CJEAC2ZKA7G8l2zOVLh3q9vJ5zJqHAJP3Z9ORAAmQQG4lIDZQbKEZzmPEQzZC5FSVGT8Z5kECJJBdCYgNNGtTWI8Rj+zamCwXCZAACXgiAYqHJ7Yq60QCJEACbiZA8XAzYCZPAiRAAp5IgOLhia3KOpEACZCAmwlQPDIJsCxSbd26I5NSMz+Zq1ev4dSpM5aMDx36G0lJSZbz2x3s33/wdt70IwES8EACFI+bjSrG8reVqx02cfMWj6FP3yF4o9dAxMZetQmzbftOLFn6m3pvegoiIj608UvPyaBBb+O17n3x/PM9sGPHbnz33U/o0KGbzjMycisM/5defgPR0fv0+eHDRxxmIXHT6+bP/xnBwUGWaL8uXn5LXXfv3os9e/ZZwhgHK1b8oetvnPObBEgg4wSuX4+D2CPDHVTHci27OZ+RymW3QmWkPPLu8qJFM/bi92PHTqDH62+i9SMPOHy45ofv52PmjCnYuCkK586dx19/bUa1apUxaPA7WLVqHZYs+Q1Vq1bC/AW/YrEyun8ro960aSOMGzcZb78zBgEBAdq4jhw5Fv/97zQUKlQQlSpVsKnm0mUr0a9vTxQrXhRipIMCA3WY7q+9iHvuKYdly3/X/oULF1L+0Th/4SLq16sDeShy7979mD37RzRsGK6N+7j//Bd+fr5YsHAxmjdrjOnT5yA5ORkffDgev/22SolEsL6db8zY/2DH9l1o3LgB1m/YhGaqzCKEU6dNR+TmrWjX7lFMmPCZrlNoaEnMnvMD1q79E2XLlsGkSVMgZW7cuL7+Yfv5+aFAgfw2deIJCZBA+gns3rMX/fuPwP33N8WVKzG6A1mnThiKFy/mUmJ3YwtdyuBmoFw/8hDh6N6jH0aNHKKMbz2H7GLVlI70/HftisZjbR7GH0owoqK2I+y+GniqfVu88MIzCA+vjbx5QjBr5hQsVz3xkydP62msRQtnY5oyxokJiVrcxo8fq+M7ymjY8HeVsf4cLdWPRtz3PyyAXIuPj9fnEyZ+rg17k6YN9bnxUbJkCTRv3lifiqjJD61jxydRRj1lKlu2nDhxEnlU2Zo2aYgPPxiFZcroy+ikjapLippuEwYiLuJWKnEZO+YdPPBgc3h5eaFnz1cQVqumEo0NuL9FU3R9rjNq1KiKV199ASFKhKKj96NIkcI4feasjs8PEiCBuyNQK6wm3hoxEL16D9LCMXzYAISF1bi7RN0QO9eJx5o1GzBp8lSNUrY06a6miqShnAmHBAwMDEDv3j0wZ/aXetRQUxnPOXN/RIsWTeDl7aWMe4JOL1CNFvz9/eHn66vXC4JDglXcQO0nayL58uZVW6gEWcRAe1h9DB3SD0FBQShRori++qISpc8/G6dHCnKhU8f2+G7u/1CjelWrWEDevHlQufI/I5lUlZe4hx5qiQVqNBRaqqQ+9/H10d/X4+KQoMRMptqkDjJiEKEQ56vKLsfyJ+sgEREfoMK95S11lDCytjNnzo+oUqUi4uLidX2EER0JkEDmEJAR/cABvTF4UF89us+cVDM3lVwnHs2aNdILwzKl1LNnf4xQwiENdTsnYiB7xfj4pBnf1q1b4ejRE6hQ4R5Uq1oZc+fOg6xLWLsyZUrp3n6XZ15Gu7aPaqNs7e/oWESga9dOmDFzrvaWEYuscRhrMaGhJSxiJAFkVCL+G9SUU8S7H1mSFNFatGiJFqFoNaXVTE1diVu6dCVk6uzhhx/AE0+0wXI1FbZly3YlWIFITU3VYWrWrI7R73+ip+OkvjfU9T/VNJ248uXLYsH8X3Dh4kVcu34dUSquOBHhUDX6oSMBEsg8Ak2aNID8ZVfnMRsjykKuTNm44mQU0O/NYXj2mY63HXE4Skt62tO+nI7ChQrh2Wc76iByV5IYWtkW2d4lJiap0Yif/WX8+utyHDx0WF+/V/XsH3/skVvCpOeCjCIMcRMhkDLJfOmnn05Ro4dhel1k5649SsjaWMojccRJPFm/qKjEUARRprBkBCJOwki9jJGJ1EfWUySMrHOIkzx69XpNH/ODBEggawmkxxbeTUlzpXjcDTDZ9njnzmi9OG0Y67tJz51xV61eh6pVKumFtsuXr6gRwyU9BeUoTxGJhIQEyxSZozDOrsXExKpNKfM68+Z1EiABEwlQPNIJ2yxg6SwWg5MACZCAqQTMsoW3zrOYWk1mRgIkQAIkkBMJUDxyYquxzCRAAiSQxQQoHlncAMyeBEiABHIiAY8RD7kjSN7jS0cCJEACuZWA2EBHd326g4fHiEeIerZB7oSiIwESIIHcSkBsoNhCM5zHiIdskXH27HnIC+A5AjHjp8M8SIAEsgsBsXli+8QGii00w3nMcx5mwGIeJEACJEACaQQ8ZuTBBiUBEiABEjCPAMXDPNbMiQRIgAQ8hgDFw2OakhUhARIgAfMIUDzMY82cSIAESMBjCFA8PKYpWRESIAESMI8AxcM81syJBEiABDyGAMXDY5qSFSEBEiAB8wikvfHHTfklJSWrd0Qk67fRuSkLJksCJEACJKAIeKtXRwcE+OqXtZkBxG3iIcIRF590sw7yitO0d2SbUSnmQQIkQAK5i0Cq6qTDYnPlbZ/udm6btpIRxz+OwvEPCx6RAAmQQGYT+MfG2trezM7nn/TcJh431Hu0AfmjIwESIAESMIeAjEDMsbtuE480UP+ooTngmAsJkAAJ5GYC5tlcN4tHbm5E1p0ESIAEPJcAxcNz25Y1IwESIAG3ETBNPE6dPofLV9Je1nRaHcfExLqtUkyYBEiABHI6gXPnL2Hb9n24EnM1W1bFNPFISUnBihXrNITFS1bB398/WwJhoUiABEggOxC4eCkGR4+fxuq1UVi7fitOnDyLG3I/bjZx7r8Z+GZFS5cqgfiEBGzfHo0SJYri2rU4zJq9UPvWqlUVoSWLY8eOvWj9SHPM/HY+nnu2PeYvWIbExCTcc08Z1K8Xhqgtu3T85JRkFCiQH7FKkYOCAtDl6XbYE30AmzbtUA/J+KNd2wexZu1mXLkSi2LFCqNI4YLYtmMPAgMD0KZ1S/y0cCluqDdv3VezCmrXqo6f5i9DfHwCLl66gkceboYtKh95M9e9Kt+GDWtnk6ZiMUiABHITAX+rZzUuXY7Bpa0xqtN9EOXLhaJcmZLKnmVtB9y0kYc0erOm9fH7qj/RonkDrFu/Gc2bhuOlFzti48ZtypinqKfRE/RvIz4h0fLdqGEdLRxyIUkJSZUq9+KZp5/A5ctX8C8VNz4+UQlMIlav2YSwsCoIyROM3XsO4Nz5CyhXNlTlGY7zFy4ib54QJQzNERwciNYPtUCZ0qHYunUPUtVtbRL2mS7tEKAaI0Gll6TESYRlx+59uhz8IAESIAGzCdxTvhTubx6O6tXuVa+WLQhvb2/dmd63/whW/P6X6kxHI+VGitnFsuRnqniUL1dKvZw9SP9Jz97H1xde6pF6cXKclJz2YGHqjRuWAubPn8dyLAf+/n5qdOEHX5+0QZOvnw+Sk1PUcO4GgoMCUa1qRVSqWA5dOrdTafro0U3L+xuhevXK+FaNdPbtP4wly1ap84qQEYzkHxgQiB/mLUEdNQpJViLmp9IOCg5Cqwea2OTNExIgARLICgLm3YDreu1Mm7ayL1LjRnWw8OcVWL16I8JqVkVxNb10Xi0QzZm7SKmr9dPp9jEdnXuhYYPaWLMuUo8wHnygEb774Rc9TRUSEoyly9boaTIRkyAlMDJFJfn6ePvoxOIT4pFHjUzOnL2Axiqdbdv3IDJyB4oULYh7ypd2lCGvkQAJkIBbCRw+chI7dx2wyUM6z9ll2spLTdu4ZQUmJjbOptLOTpKSktRGXn7aW4oiC0I+PhkbEMkIRJ5q91WjGHEJavpL1kDsj5PVCMcIExN7FUvUAv4T7R7C2nWbtYg0Uusc1nF1AvwgARIgARMJ7FXTUzJFJa5ggXyqIxuKkmq92Nv7zuOQfHmD3F7SLBcPt9fQhQxkZBIXFwdfJWIPt2pqERwXojIICZAACbiFgNyqe/LUedyjFsjz5QtJVx4Uj3ThYmASIAESIAEhYIZ4ZGx+iO1DAiRAAiSQqwm4WTzcspySqxuMlScBEiAB5wTMs7luEw95qxVfAOW8ielDAiRAAplPwEu/UTDz0701RbeJh7wO8R9nnhr+kyePSIAESCC3EPjHxtraXvfV39rCZ2ouxmsQ095hnqlJMzESIAESIAEbAmkjDjPfYe62W3Vt6sUTEiABEiABjyLgtmkrj6LEypAACZAACdgQoHjY4OAJCZAACZCAKwQoHq5QYhgSIAESIAEbAhQPGxw8IQESIAEScIUAxcMVSgxDAiRAAiRgQ4DiYYODJyRAAiRAAq4QoHi4QolhSIAESIAEbAhQPGxw8IQESIAESMAVAhQPVygxDAmQAAmQgA0BiocNDp6QAAmQAAm4QoDi4QolhiEBEiABErAhQPGwwcETEiABEiABVwhQPFyhxDAkQAIkQAI2BCgeNjh4QgIkQAIk4AoBiocrlBiGBEiABEjAhgDFwwYHT0iABEiABFwhQPFwhRLDkAAJkAAJ2BCgeNjg4AkJkAAJkIArBP4fwBvl4gsSyx4AAAAASUVORK5CYII=;" vertex="1" parent="1">
                    <mxGeometry x="-250" y="172" width="399" height="428" as="geometry"/>
                </mxCell>
            </root>
        </mxGraphModel>
    </diagram>
</mxfile>